<svg width="156" height="26" viewBox="0 0 156 26" fill="none" xmlns="http://www.w3.org/2000/svg">
<g clip-path="url(#clip0_3_1064)">
<path d="M18 1.65967H15C13.6739 1.65967 12.4021 2.18645 11.4645 3.12413C10.5268 4.06182 10 5.33359 10 6.65967V9.65967H7V13.6597H10V21.6597H14V13.6597H17L18 9.65967H14V6.65967C14 6.39445 14.1054 6.1401 14.2929 5.95256C14.4804 5.76503 14.7348 5.65967 15 5.65967H18V1.65967Z" stroke="#293341" stroke-width="2" stroke-linecap="round" stroke-linejoin="round"/>
</g>
<g clip-path="url(#clip1_3_1064)">
<path d="M149 1.65967H139C136.239 1.65967 134 3.89824 134 6.65967V16.6597C134 19.4211 136.239 21.6597 139 21.6597H149C151.761 21.6597 154 19.4211 154 16.6597V6.65967C154 3.89824 151.761 1.65967 149 1.65967Z" stroke="#293341" stroke-width="2" stroke-linecap="round" stroke-linejoin="round"/>
<path d="M148 11.0297C148.123 11.862 147.981 12.7119 147.594 13.4587C147.206 14.2055 146.593 14.8111 145.842 15.1894C145.09 15.5677 144.238 15.6993 143.408 15.5657C142.577 15.432 141.81 15.0398 141.215 14.4449C140.62 13.85 140.228 13.0826 140.094 12.2519C139.96 11.4213 140.092 10.5696 140.47 9.8181C140.849 9.06658 141.454 8.45347 142.201 8.06597C142.948 7.67847 143.798 7.53631 144.63 7.65973C145.479 7.78561 146.265 8.18119 146.872 8.78803C147.479 9.39487 147.874 10.1808 148 11.0297Z" stroke="#293341" stroke-width="2" stroke-linecap="round" stroke-linejoin="round"/>
<path d="M149.5 6.15967H149.51" stroke="#293341" stroke-width="2" stroke-linecap="round" stroke-linejoin="round"/>
</g>
<path d="M110.54 6.07967C110.421 5.60508 110.179 5.17024 109.839 4.81907C109.498 4.46791 109.071 4.21285 108.6 4.07967C106.88 3.65967 100 3.65967 100 3.65967C100 3.65967 93.12 3.65967 91.4 4.11967C90.9293 4.25285 90.502 4.50791 90.1614 4.85907C89.8207 5.21024 89.5788 5.64508 89.46 6.11967C89.1452 7.86522 88.9913 9.63598 89 11.4097C88.9888 13.1967 89.1428 14.981 89.46 16.7397C89.591 17.1995 89.8383 17.6178 90.1782 17.9541C90.518 18.2905 90.9388 18.5335 91.4 18.6597C93.12 19.1197 100 19.1197 100 19.1197C100 19.1197 106.88 19.1197 108.6 18.6597C109.071 18.5265 109.498 18.2714 109.839 17.9203C110.179 17.5691 110.421 17.1343 110.54 16.6597C110.852 14.9273 111.006 13.17 111 11.4097C111.011 9.62262 110.857 7.83837 110.54 6.07967V6.07967Z" stroke="#293341" stroke-width="2" stroke-linecap="round" stroke-linejoin="round"/>
<path d="M97.75 14.6796L103.5 11.4096L97.75 8.13965V14.6796Z" stroke="#293341" stroke-width="2" stroke-linecap="round" stroke-linejoin="round"/>
<g clip-path="url(#clip2_3_1064)">
<path d="M60 7.65967C61.5913 7.65967 63.1174 8.29181 64.2426 9.41703C65.3679 10.5422 66 12.0684 66 13.6597V20.6597H62V13.6597C62 13.1292 61.7893 12.6205 61.4142 12.2455C61.0391 11.8704 60.5304 11.6597 60 11.6597C59.4696 11.6597 58.9609 11.8704 58.5858 12.2455C58.2107 12.6205 58 13.1292 58 13.6597V20.6597H54V13.6597C54 12.0684 54.6321 10.5422 55.7574 9.41703C56.8826 8.29181 58.4087 7.65967 60 7.65967V7.65967Z" stroke="#293341" stroke-width="2" stroke-linecap="round" stroke-linejoin="round"/>
<path d="M50 8.65967H46V20.6597H50V8.65967Z" stroke="#293341" stroke-width="2" stroke-linecap="round" stroke-linejoin="round"/>
<path d="M48 5.65967C49.1046 5.65967 50 4.76424 50 3.65967C50 2.5551 49.1046 1.65967 48 1.65967C46.8954 1.65967 46 2.5551 46 3.65967C46 4.76424 46.8954 5.65967 48 5.65967Z" stroke="#293341" stroke-width="2" stroke-linecap="round" stroke-linejoin="round"/>
</g>
<defs>
<clipPath id="clip0_3_1064">
<rect width="24" height="24.8067" fill="white" transform="translate(0 0.5)"/>
</clipPath>
<clipPath id="clip1_3_1064">
<rect width="24" height="24.8067" fill="white" transform="translate(132 0.5)"/>
</clipPath>
<clipPath id="clip2_3_1064">
<rect width="24" height="24.8067" fill="white" transform="translate(44 0.5)"/>
</clipPath>
</defs>
</svg>
