<svg width="139" height="40" viewBox="0 0 139 40" fill="none" xmlns="http://www.w3.org/2000/svg">
<rect width="139" height="40" rx="20" fill="white"/>
<path d="M24.224 23.124C23.4667 24.18 22.4053 24.708 21.04 24.708C19.6747 24.708 18.6133 24.18 17.856 23.124C17.0987 22.068 16.72 20.66 16.72 18.9C16.72 17.14 17.0987 15.732 17.856 14.676C18.6133 13.62 19.6747 13.092 21.04 13.092C22.4053 13.092 23.4667 13.62 24.224 14.676C24.9813 15.732 25.36 17.14 25.36 18.9C25.36 20.66 24.9813 22.068 24.224 23.124ZM18.944 22.116C19.4347 22.8733 20.1333 23.252 21.04 23.252C21.9467 23.252 22.6453 22.8733 23.136 22.116C23.6373 21.3587 23.888 20.2867 23.888 18.9C23.888 17.5133 23.6373 16.4413 23.136 15.684C22.6453 14.916 21.9467 14.532 21.04 14.532C20.1333 14.532 19.4347 14.9107 18.944 15.668C18.4533 16.4253 18.208 17.5027 18.208 18.9C18.208 20.2867 18.4533 21.3587 18.944 22.116ZM37.5021 24.708C35.8061 24.708 34.4035 24.148 33.2941 23.028C32.1955 21.908 31.6461 20.532 31.6461 18.9C31.6461 17.268 32.1955 15.892 33.2941 14.772C34.4035 13.652 35.8061 13.092 37.5021 13.092C38.5261 13.092 39.4648 13.3373 40.3181 13.828C41.1821 14.3187 41.8541 14.98 42.3341 15.812L41.0381 16.564C40.7181 15.9453 40.2381 15.4547 39.5981 15.092C38.9688 14.7187 38.2701 14.532 37.5021 14.532C36.2115 14.532 35.1555 14.948 34.3341 15.78C33.5235 16.612 33.1181 17.652 33.1181 18.9C33.1181 20.1373 33.5235 21.172 34.3341 22.004C35.1555 22.836 36.2115 23.252 37.5021 23.252C38.2701 23.252 38.9688 23.0707 39.5981 22.708C40.2381 22.3347 40.7181 21.844 41.0381 21.236L42.3341 21.972C41.8648 22.804 41.1981 23.4707 40.3341 23.972C39.4701 24.4627 38.5261 24.708 37.5021 24.708ZM51.0761 23.492C50.2548 24.3027 49.2575 24.708 48.0841 24.708C46.9108 24.708 45.9135 24.3027 45.0921 23.492C44.2815 22.6813 43.8761 21.684 43.8761 20.5C43.8761 19.316 44.2815 18.3187 45.0921 17.508C45.9135 16.6973 46.9108 16.292 48.0841 16.292C49.2575 16.292 50.2548 16.6973 51.0761 17.508C51.8975 18.3187 52.3081 19.316 52.3081 20.5C52.3081 21.684 51.8975 22.6813 51.0761 23.492ZM48.0841 23.348C48.8841 23.348 49.5561 23.076 50.1001 22.532C50.6441 21.988 50.9161 21.3107 50.9161 20.5C50.9161 19.6893 50.6441 19.012 50.1001 18.468C49.5561 17.924 48.8841 17.652 48.0841 17.652C47.2948 17.652 46.6281 17.924 46.0841 18.468C45.5401 19.012 45.2681 19.6893 45.2681 20.5C45.2681 21.3107 45.5401 21.988 46.0841 22.532C46.6281 23.076 47.2948 23.348 48.0841 23.348ZM54.4291 24.5V12.82H55.8211V24.5H54.4291ZM58.4248 24.5V12.82H59.8168V24.5H58.4248ZM63.3964 21.14C63.535 21.8547 63.8604 22.4093 64.3724 22.804C64.895 23.1987 65.535 23.396 66.2924 23.396C67.3484 23.396 68.1164 23.0067 68.5964 22.228L69.7804 22.9C69.0017 24.1053 67.8284 24.708 66.2604 24.708C64.991 24.708 63.9564 24.3133 63.1564 23.524C62.367 22.724 61.9724 21.716 61.9724 20.5C61.9724 19.2947 62.3617 18.292 63.1404 17.492C63.919 16.692 64.927 16.292 66.1644 16.292C67.3377 16.292 68.2924 16.708 69.0284 17.54C69.775 18.3613 70.1484 19.3533 70.1484 20.516C70.1484 20.7187 70.1324 20.9267 70.1004 21.14H63.3964ZM66.1644 17.604C65.4177 17.604 64.799 17.8173 64.3084 18.244C63.8177 18.66 63.5137 19.22 63.3964 19.924H68.7404C68.623 19.1667 68.3244 18.5907 67.8444 18.196C67.3644 17.8013 66.8044 17.604 66.1644 17.604ZM75.9729 24.708C74.7675 24.708 73.7649 24.308 72.9649 23.508C72.1649 22.6973 71.7649 21.6947 71.7649 20.5C71.7649 19.3053 72.1649 18.308 72.9649 17.508C73.7649 16.6973 74.7675 16.292 75.9729 16.292C76.7622 16.292 77.4715 16.484 78.1009 16.868C78.7302 17.2413 79.1995 17.748 79.5089 18.388L78.3409 19.06C78.1382 18.6333 77.8235 18.292 77.3969 18.036C76.9809 17.78 76.5062 17.652 75.9729 17.652C75.1729 17.652 74.5009 17.924 73.9569 18.468C73.4235 19.012 73.1569 19.6893 73.1569 20.5C73.1569 21.3 73.4235 21.972 73.9569 22.516C74.5009 23.06 75.1729 23.332 75.9729 23.332C76.5062 23.332 76.9862 23.2093 77.4129 22.964C77.8395 22.708 78.1649 22.3667 78.3889 21.94L79.5729 22.628C79.2315 23.2573 78.7409 23.764 78.1009 24.148C77.4609 24.5213 76.7515 24.708 75.9729 24.708ZM85.7792 17.844H83.6512V22.18C83.6512 22.5747 83.7259 22.8573 83.8752 23.028C84.0352 23.188 84.2752 23.2733 84.5952 23.284C84.9152 23.284 85.3099 23.2733 85.7792 23.252V24.5C84.5632 24.66 83.6726 24.564 83.1072 24.212C82.5419 23.8493 82.2592 23.172 82.2592 22.18V17.844H80.6752V16.5H82.2592V14.676L83.6512 14.26V16.5H85.7792V17.844ZM88.6112 15.044C88.3446 15.044 88.1206 14.9533 87.9392 14.772C87.7579 14.5907 87.6672 14.372 87.6672 14.116C87.6672 13.86 87.7579 13.6413 87.9392 13.46C88.1206 13.268 88.3446 13.172 88.6112 13.172C88.8672 13.172 89.0859 13.268 89.2672 13.46C89.4486 13.6413 89.5392 13.86 89.5392 14.116C89.5392 14.372 89.4486 14.5907 89.2672 14.772C89.0859 14.9533 88.8672 15.044 88.6112 15.044ZM87.9072 24.5V16.5H89.2992V24.5H87.9072ZM96.3189 16.292C97.4389 16.292 98.3935 16.7027 99.1829 17.524C99.9722 18.3347 100.367 19.3267 100.367 20.5C100.367 21.6733 99.9722 22.6707 99.1829 23.492C98.3935 24.3027 97.4389 24.708 96.3189 24.708C94.9962 24.708 93.9882 24.18 93.2949 23.124V24.5H91.9029V13.3H93.2949V17.876C93.9882 16.82 94.9962 16.292 96.3189 16.292ZM96.1429 23.364C96.9429 23.364 97.6149 23.092 98.1589 22.548C98.7029 21.9933 98.9749 21.3107 98.9749 20.5C98.9749 19.6893 98.7029 19.012 98.1589 18.468C97.6149 17.9133 96.9429 17.636 96.1429 17.636C95.3322 17.636 94.6549 17.9133 94.1109 18.468C93.5669 19.012 93.2949 19.6893 93.2949 20.5C93.2949 21.3107 93.5669 21.9933 94.1109 22.548C94.6549 23.092 95.3322 23.364 96.1429 23.364ZM102.508 24.5V12.82H103.9V24.5H102.508ZM107.48 21.14C107.618 21.8547 107.944 22.4093 108.456 22.804C108.978 23.1987 109.618 23.396 110.376 23.396C111.432 23.396 112.2 23.0067 112.68 22.228L113.864 22.9C113.085 24.1053 111.912 24.708 110.344 24.708C109.074 24.708 108.04 24.3133 107.24 23.524C106.45 22.724 106.056 21.716 106.056 20.5C106.056 19.2947 106.445 18.292 107.224 17.492C108.002 16.692 109.01 16.292 110.248 16.292C111.421 16.292 112.376 16.708 113.112 17.54C113.858 18.3613 114.232 19.3533 114.232 20.516C114.232 20.7187 114.216 20.9267 114.184 21.14H107.48ZM110.248 17.604C109.501 17.604 108.882 17.8173 108.392 18.244C107.901 18.66 107.597 19.22 107.48 19.924H112.824C112.706 19.1667 112.408 18.5907 111.928 18.196C111.448 17.8013 110.888 17.604 110.248 17.604ZM117.199 18.66C117.199 18.9693 117.354 19.22 117.663 19.412C117.972 19.5933 118.346 19.7427 118.783 19.86C119.22 19.9667 119.658 20.0947 120.095 20.244C120.532 20.3827 120.906 20.628 121.215 20.98C121.524 21.3213 121.679 21.764 121.679 22.308C121.679 23.0333 121.396 23.6147 120.831 24.052C120.276 24.4893 119.562 24.708 118.687 24.708C117.908 24.708 117.242 24.5373 116.687 24.196C116.132 23.8547 115.738 23.4013 115.503 22.836L116.703 22.148C116.831 22.532 117.071 22.836 117.423 23.06C117.775 23.284 118.196 23.396 118.687 23.396C119.146 23.396 119.524 23.3107 119.823 23.14C120.122 22.9587 120.271 22.6813 120.271 22.308C120.271 21.9987 120.116 21.7533 119.807 21.572C119.498 21.38 119.124 21.2307 118.687 21.124C118.25 21.0067 117.812 20.8733 117.375 20.724C116.938 20.5747 116.564 20.3293 116.255 19.988C115.946 19.6467 115.791 19.2093 115.791 18.676C115.791 17.9827 116.058 17.412 116.591 16.964C117.135 16.516 117.812 16.292 118.623 16.292C119.274 16.292 119.85 16.4413 120.351 16.74C120.863 17.028 121.247 17.4333 121.503 17.956L120.335 18.612C120.047 17.9293 119.476 17.588 118.623 17.588C118.228 17.588 117.892 17.684 117.615 17.876C117.338 18.0573 117.199 18.3187 117.199 18.66Z" fill="#1A79E8"/>
</svg>
