<svg width="442" height="41" viewBox="0 0 442 41" fill="none" xmlns="http://www.w3.org/2000/svg">
<rect y="0.5" width="442" height="40" rx="20" fill="#F7F9FA"/>
<rect x="0.25" y="0.75" width="441.5" height="39.5" rx="19.75" stroke="#ABB2BD" stroke-opacity="0.5" stroke-width="0.5"/>
<path d="M19.304 18.172C20.424 18.172 21.3467 18.524 22.072 19.228C22.7973 19.9213 23.16 20.8227 23.16 21.932C23.16 23.0413 22.7973 23.948 22.072 24.652C21.3467 25.356 20.424 25.708 19.304 25.708C18.1733 25.708 17.2453 25.356 16.52 24.652C15.8053 23.948 15.448 23.0413 15.448 21.932C15.448 21.068 15.672 20.3213 16.12 19.692L19.72 14.3H21.416L18.776 18.204C19.0107 18.1827 19.1867 18.172 19.304 18.172ZM17.576 23.644C18.024 24.0707 18.6 24.284 19.304 24.284C20.008 24.284 20.5787 24.0707 21.016 23.644C21.464 23.2067 21.688 22.636 21.688 21.932C21.688 21.228 21.464 20.6627 21.016 20.236C20.5787 19.8093 20.008 19.596 19.304 19.596C18.5893 19.596 18.0133 19.8093 17.576 20.236C17.1387 20.6627 16.92 21.228 16.92 21.932C16.92 22.636 17.1387 23.2067 17.576 23.644ZM25.7129 25.676C25.4249 25.676 25.1795 25.5747 24.9769 25.372C24.7742 25.1693 24.6729 24.924 24.6729 24.636C24.6729 24.348 24.7742 24.1027 24.9769 23.9C25.1795 23.6973 25.4249 23.596 25.7129 23.596C26.0115 23.596 26.2569 23.6973 26.4489 23.9C26.6515 24.1027 26.7529 24.348 26.7529 24.636C26.7529 24.924 26.6515 25.1693 26.4489 25.372C26.2569 25.5747 26.0115 25.676 25.7129 25.676ZM32.4675 18.668C33.5235 18.668 34.4142 18.9827 35.1395 19.612C35.8755 20.2307 36.2435 21.0893 36.2435 22.188C36.2435 23.276 35.8702 24.1347 35.1235 24.764C34.3768 25.3933 33.4702 25.708 32.4035 25.708C31.5502 25.708 30.7875 25.5053 30.1155 25.1C29.4435 24.684 28.9742 24.0867 28.7075 23.308L29.9715 22.588C30.1208 23.132 30.4088 23.548 30.8355 23.836C31.2622 24.1133 31.7848 24.252 32.4035 24.252C33.1075 24.252 33.6782 24.0707 34.1155 23.708C34.5528 23.3453 34.7715 22.8387 34.7715 22.188C34.7715 21.5373 34.5528 21.0307 34.1155 20.668C33.6782 20.2947 33.1182 20.108 32.4355 20.108H29.2675L29.6835 14.3H35.8115V15.692H31.0275L30.8355 18.668H32.4675ZM44.5063 17.852C44.5063 18.716 44.2769 19.468 43.8183 20.108H43.8343L40.2183 25.5H38.5383L41.1943 21.58C40.9596 21.6013 40.7783 21.612 40.6503 21.612C39.5196 21.612 38.5916 21.2653 37.8663 20.572C37.1516 19.868 36.7943 18.9613 36.7943 17.852C36.7943 16.7427 37.1516 15.8413 37.8663 15.148C38.5916 14.444 39.5196 14.092 40.6503 14.092C41.7809 14.092 42.7036 14.444 43.4183 15.148C44.1436 15.8413 44.5063 16.7427 44.5063 17.852ZM38.9223 16.156C38.4849 16.5827 38.2663 17.148 38.2663 17.852C38.2663 18.556 38.4849 19.1267 38.9223 19.564C39.3703 19.9907 39.9463 20.204 40.6503 20.204C41.3543 20.204 41.9249 19.9907 42.3623 19.564C42.8103 19.1267 43.0343 18.556 43.0343 17.852C43.0343 17.148 42.8156 16.5827 42.3783 16.156C41.9409 15.7293 41.3649 15.516 40.6503 15.516C39.9463 15.516 39.3703 15.7293 38.9223 16.156Z" fill="#293341"/>
</svg>
