<svg width="343" height="40" viewBox="0 0 343 40" fill="none" xmlns="http://www.w3.org/2000/svg">
<rect width="343" height="40" rx="20" fill="white"/>
<path d="M40 27C44.4183 27 48 23.4183 48 19C48 14.5817 44.4183 11 40 11C35.5817 11 32 14.5817 32 19C32 23.4183 35.5817 27 40 27Z" stroke="#006AE5" stroke-width="2" stroke-linecap="round" stroke-linejoin="round"/>
<path d="M50 29L45.65 24.65" stroke="#006AE5" stroke-width="2" stroke-linecap="round" stroke-linejoin="round"/>
<path opacity="0.6" d="M74.65 15.124H70.1V18.736H74.44V19.66H70.1V24H69.12V14.2H74.65V15.124ZM77.5431 15.32C77.4124 15.4507 77.2537 15.516 77.0671 15.516C76.8804 15.516 76.7217 15.4507 76.5911 15.32C76.4604 15.1893 76.3951 15.0307 76.3951 14.844C76.3951 14.6573 76.4604 14.4987 76.5911 14.368C76.7217 14.2373 76.8804 14.172 77.0671 14.172C77.2537 14.172 77.4124 14.2373 77.5431 14.368C77.6737 14.4987 77.7391 14.6573 77.7391 14.844C77.7391 15.0307 77.6737 15.1893 77.5431 15.32ZM76.6051 24V17H77.5291V24H76.6051ZM83.1858 16.832C84.0352 16.832 84.7025 17.0933 85.1878 17.616C85.6825 18.1293 85.9298 18.8247 85.9298 19.702V24H85.0058V19.702C85.0058 19.0767 84.8378 18.5913 84.5018 18.246C84.1752 17.9007 83.7085 17.728 83.1018 17.728C82.4298 17.728 81.8838 17.9427 81.4638 18.372C81.0438 18.792 80.8338 19.4453 80.8338 20.332V24H79.9098V17H80.8338V18.092C81.3565 17.252 82.1405 16.832 83.1858 16.832ZM94.1565 14.2H95.0805V24H94.1565V22.628C93.5125 23.6547 92.5698 24.168 91.3285 24.168C90.3298 24.168 89.4758 23.8133 88.7665 23.104C88.0665 22.3947 87.7165 21.5267 87.7165 20.5C87.7165 19.4733 88.0665 18.6053 88.7665 17.896C89.4758 17.1867 90.3298 16.832 91.3285 16.832C92.5698 16.832 93.5125 17.3453 94.1565 18.372V14.2ZM89.4385 22.474C89.9705 23.006 90.6238 23.272 91.3985 23.272C92.1732 23.272 92.8265 23.006 93.3585 22.474C93.8905 21.9327 94.1565 21.2747 94.1565 20.5C94.1565 19.7253 93.8905 19.072 93.3585 18.54C92.8265 17.9987 92.1732 17.728 91.3985 17.728C90.6238 17.728 89.9705 17.9987 89.4385 18.54C88.9065 19.072 88.6405 19.7253 88.6405 20.5C88.6405 21.2747 88.9065 21.9327 89.4385 22.474ZM110.477 14.2V24H109.497V15.684L106.067 21.424H105.927L102.497 15.684V24H101.517V14.2H102.735L105.997 19.66L109.259 14.2H110.477ZM117.922 17H118.846V24H117.922V22.908C117.399 23.748 116.615 24.168 115.57 24.168C114.721 24.168 114.049 23.9113 113.554 23.398C113.069 22.8753 112.826 22.1753 112.826 21.298V17H113.75V21.298C113.75 21.9233 113.913 22.4087 114.24 22.754C114.576 23.0993 115.047 23.272 115.654 23.272C116.326 23.272 116.872 23.062 117.292 22.642C117.712 22.2127 117.922 21.5547 117.922 20.668V17ZM121.949 18.834C121.949 19.1513 122.089 19.4033 122.369 19.59C122.649 19.7767 122.989 19.9213 123.391 20.024C123.792 20.1267 124.193 20.2433 124.595 20.374C124.996 20.4953 125.337 20.7053 125.617 21.004C125.897 21.2933 126.037 21.676 126.037 22.152C126.037 22.7493 125.799 23.2347 125.323 23.608C124.856 23.9813 124.249 24.168 123.503 24.168C122.831 24.168 122.257 24.0187 121.781 23.72C121.314 23.4213 120.987 23.034 120.801 22.558L121.585 22.096C121.715 22.46 121.949 22.7493 122.285 22.964C122.63 23.1693 123.036 23.272 123.503 23.272C123.96 23.272 124.343 23.1833 124.651 23.006C124.959 22.8193 125.113 22.5347 125.113 22.152C125.113 21.8347 124.973 21.5827 124.693 21.396C124.413 21.2093 124.072 21.0647 123.671 20.962C123.269 20.8593 122.868 20.7473 122.467 20.626C122.065 20.4953 121.725 20.2853 121.445 19.996C121.165 19.6973 121.025 19.31 121.025 18.834C121.025 18.2647 121.249 17.7887 121.697 17.406C122.154 17.0233 122.728 16.832 123.419 16.832C123.988 16.832 124.487 16.9627 124.917 17.224C125.346 17.476 125.663 17.8213 125.869 18.26L125.099 18.708C124.828 18.0547 124.268 17.728 123.419 17.728C123.017 17.728 122.672 17.826 122.383 18.022C122.093 18.2087 121.949 18.4793 121.949 18.834ZM128.868 15.32C128.737 15.4507 128.579 15.516 128.392 15.516C128.205 15.516 128.047 15.4507 127.916 15.32C127.785 15.1893 127.72 15.0307 127.72 14.844C127.72 14.6573 127.785 14.4987 127.916 14.368C128.047 14.2373 128.205 14.172 128.392 14.172C128.579 14.172 128.737 14.2373 128.868 14.368C128.999 14.4987 129.064 14.6573 129.064 14.844C129.064 15.0307 128.999 15.1893 128.868 15.32ZM127.93 24V17H128.854V24H127.93ZM134.497 24.168C133.442 24.168 132.565 23.818 131.865 23.118C131.165 22.4087 130.815 21.536 130.815 20.5C130.815 19.464 131.165 18.596 131.865 17.896C132.565 17.1867 133.442 16.832 134.497 16.832C135.187 16.832 135.808 17 136.359 17.336C136.909 17.6627 137.311 18.106 137.563 18.666L136.807 19.1C136.62 18.68 136.317 18.3487 135.897 18.106C135.486 17.854 135.019 17.728 134.497 17.728C133.722 17.728 133.069 17.9987 132.537 18.54C132.005 19.072 131.739 19.7253 131.739 20.5C131.739 21.2747 132.005 21.9327 132.537 22.474C133.069 23.006 133.722 23.272 134.497 23.272C135.019 23.272 135.486 23.1507 135.897 22.908C136.307 22.656 136.629 22.32 136.863 21.9L137.633 22.348C137.343 22.908 136.919 23.3513 136.359 23.678C135.799 24.0047 135.178 24.168 134.497 24.168ZM145.331 17H146.255V24H145.331V22.628C144.687 23.6547 143.744 24.168 142.503 24.168C141.504 24.168 140.65 23.8133 139.941 23.104C139.241 22.3947 138.891 21.5267 138.891 20.5C138.891 19.4733 139.241 18.6053 139.941 17.896C140.65 17.1867 141.504 16.832 142.503 16.832C143.744 16.832 144.687 17.3453 145.331 18.372V17ZM140.613 22.474C141.145 23.006 141.798 23.272 142.573 23.272C143.348 23.272 144.001 23.006 144.533 22.474C145.065 21.9327 145.331 21.2747 145.331 20.5C145.331 19.7253 145.065 19.072 144.533 18.54C144.001 17.9987 143.348 17.728 142.573 17.728C141.798 17.728 141.145 17.9987 140.613 18.54C140.081 19.072 139.815 19.7253 139.815 20.5C139.815 21.2747 140.081 21.9327 140.613 22.474ZM151.907 16.832C152.757 16.832 153.424 17.0933 153.909 17.616C154.404 18.1293 154.651 18.8247 154.651 19.702V24H153.727V19.702C153.727 19.0767 153.559 18.5913 153.223 18.246C152.897 17.9007 152.43 17.728 151.823 17.728C151.151 17.728 150.605 17.9427 150.185 18.372C149.765 18.792 149.555 19.4453 149.555 20.332V24H148.631V17H149.555V18.092C150.078 17.252 150.862 16.832 151.907 16.832ZM157.586 18.834C157.586 19.1513 157.726 19.4033 158.006 19.59C158.286 19.7767 158.627 19.9213 159.028 20.024C159.429 20.1267 159.831 20.2433 160.232 20.374C160.633 20.4953 160.974 20.7053 161.254 21.004C161.534 21.2933 161.674 21.676 161.674 22.152C161.674 22.7493 161.436 23.2347 160.96 23.608C160.493 23.9813 159.887 24.168 159.14 24.168C158.468 24.168 157.894 24.0187 157.418 23.72C156.951 23.4213 156.625 23.034 156.438 22.558L157.222 22.096C157.353 22.46 157.586 22.7493 157.922 22.964C158.267 23.1693 158.673 23.272 159.14 23.272C159.597 23.272 159.98 23.1833 160.288 23.006C160.596 22.8193 160.75 22.5347 160.75 22.152C160.75 21.8347 160.61 21.5827 160.33 21.396C160.05 21.2093 159.709 21.0647 159.308 20.962C158.907 20.8593 158.505 20.7473 158.104 20.626C157.703 20.4953 157.362 20.2853 157.082 19.996C156.802 19.6973 156.662 19.31 156.662 18.834C156.662 18.2647 156.886 17.7887 157.334 17.406C157.791 17.0233 158.365 16.832 159.056 16.832C159.625 16.832 160.125 16.9627 160.554 17.224C160.983 17.476 161.301 17.8213 161.506 18.26L160.736 18.708C160.465 18.0547 159.905 17.728 159.056 17.728C158.655 17.728 158.309 17.826 158.02 18.022C157.731 18.2087 157.586 18.4793 157.586 18.834ZM165.039 22.81L164.199 25.96H163.359L163.919 22.81H165.039ZM177.222 17H178.146V24H177.222V22.628C176.578 23.6547 175.635 24.168 174.394 24.168C173.395 24.168 172.541 23.8133 171.832 23.104C171.132 22.3947 170.782 21.5267 170.782 20.5C170.782 19.4733 171.132 18.6053 171.832 17.896C172.541 17.1867 173.395 16.832 174.394 16.832C175.635 16.832 176.578 17.3453 177.222 18.372V17ZM172.504 22.474C173.036 23.006 173.689 23.272 174.464 23.272C175.239 23.272 175.892 23.006 176.424 22.474C176.956 21.9327 177.222 21.2747 177.222 20.5C177.222 19.7253 176.956 19.072 176.424 18.54C175.892 17.9987 175.239 17.728 174.464 17.728C173.689 17.728 173.036 17.9987 172.504 18.54C171.972 19.072 171.706 19.7253 171.706 20.5C171.706 21.2747 171.972 21.9327 172.504 22.474ZM181.446 18.162C181.876 17.3127 182.613 16.888 183.658 16.888V17.784C183.024 17.784 182.496 17.9707 182.076 18.344C181.656 18.7173 181.446 19.3053 181.446 20.108V24H180.522V17H181.446V18.162ZM189.191 17.896H187.175V22.138C187.175 22.5207 187.25 22.796 187.399 22.964C187.549 23.1227 187.773 23.2067 188.071 23.216C188.37 23.216 188.743 23.2067 189.191 23.188V24C188.211 24.1493 187.474 24.0793 186.979 23.79C186.494 23.5007 186.251 22.95 186.251 22.138V17.896H184.781V17H186.251V15.32L187.175 15.04V17H189.191V17.896ZM192.089 15.32C191.959 15.4507 191.8 15.516 191.613 15.516C191.427 15.516 191.268 15.4507 191.137 15.32C191.007 15.1893 190.941 15.0307 190.941 14.844C190.941 14.6573 191.007 14.4987 191.137 14.368C191.268 14.2373 191.427 14.172 191.613 14.172C191.8 14.172 191.959 14.2373 192.089 14.368C192.22 14.4987 192.285 14.6573 192.285 14.844C192.285 15.0307 192.22 15.1893 192.089 15.32ZM191.151 24V17H192.075V24H191.151ZM195.184 18.834C195.184 19.1513 195.324 19.4033 195.604 19.59C195.884 19.7767 196.225 19.9213 196.626 20.024C197.027 20.1267 197.429 20.2433 197.83 20.374C198.231 20.4953 198.572 20.7053 198.852 21.004C199.132 21.2933 199.272 21.676 199.272 22.152C199.272 22.7493 199.034 23.2347 198.558 23.608C198.091 23.9813 197.485 24.168 196.738 24.168C196.066 24.168 195.492 24.0187 195.016 23.72C194.549 23.4213 194.223 23.034 194.036 22.558L194.82 22.096C194.951 22.46 195.184 22.7493 195.52 22.964C195.865 23.1693 196.271 23.272 196.738 23.272C197.195 23.272 197.578 23.1833 197.886 23.006C198.194 22.8193 198.348 22.5347 198.348 22.152C198.348 21.8347 198.208 21.5827 197.928 21.396C197.648 21.2093 197.307 21.0647 196.906 20.962C196.505 20.8593 196.103 20.7473 195.702 20.626C195.301 20.4953 194.96 20.2853 194.68 19.996C194.4 19.6973 194.26 19.31 194.26 18.834C194.26 18.2647 194.484 17.7887 194.932 17.406C195.389 17.0233 195.963 16.832 196.654 16.832C197.223 16.832 197.723 16.9627 198.152 17.224C198.581 17.476 198.899 17.8213 199.104 18.26L198.334 18.708C198.063 18.0547 197.503 17.728 196.654 17.728C196.253 17.728 195.907 17.826 195.618 18.022C195.329 18.2087 195.184 18.4793 195.184 18.834ZM204.67 17.896H202.654V22.138C202.654 22.5207 202.729 22.796 202.878 22.964C203.027 23.1227 203.251 23.2067 203.55 23.216C203.849 23.216 204.222 23.2067 204.67 23.188V24C203.69 24.1493 202.953 24.0793 202.458 23.79C201.973 23.5007 201.73 22.95 201.73 22.138V17.896H200.26V17H201.73V15.32L202.654 15.04V17H204.67V17.896ZM206.934 18.834C206.934 19.1513 207.074 19.4033 207.354 19.59C207.634 19.7767 207.975 19.9213 208.376 20.024C208.778 20.1267 209.179 20.2433 209.58 20.374C209.982 20.4953 210.322 20.7053 210.602 21.004C210.882 21.2933 211.022 21.676 211.022 22.152C211.022 22.7493 210.784 23.2347 210.308 23.608C209.842 23.9813 209.235 24.168 208.488 24.168C207.816 24.168 207.242 24.0187 206.766 23.72C206.3 23.4213 205.973 23.034 205.786 22.558L206.57 22.096C206.701 22.46 206.934 22.7493 207.27 22.964C207.616 23.1693 208.022 23.272 208.488 23.272C208.946 23.272 209.328 23.1833 209.636 23.006C209.944 22.8193 210.098 22.5347 210.098 22.152C210.098 21.8347 209.958 21.5827 209.678 21.396C209.398 21.2093 209.058 21.0647 208.656 20.962C208.255 20.8593 207.854 20.7473 207.452 20.626C207.051 20.4953 206.71 20.2853 206.43 19.996C206.15 19.6973 206.01 19.31 206.01 18.834C206.01 18.2647 206.234 17.7887 206.682 17.406C207.14 17.0233 207.714 16.832 208.404 16.832C208.974 16.832 209.473 16.9627 209.902 17.224C210.332 17.476 210.649 17.8213 210.854 18.26L210.084 18.708C209.814 18.0547 209.254 17.728 208.404 17.728C208.003 17.728 207.658 17.826 207.368 18.022C207.079 18.2087 206.934 18.4793 206.934 18.834ZM224.772 23.678L223.904 24.168L222.868 23.062C222.13 23.7993 221.169 24.168 219.984 24.168C219.022 24.168 218.243 23.9207 217.646 23.426C217.058 22.922 216.764 22.2453 216.764 21.396C216.764 20.78 216.922 20.2247 217.24 19.73C217.557 19.2353 218.028 18.8433 218.654 18.554C218.168 18.0033 217.926 17.3873 217.926 16.706C217.926 15.894 218.206 15.2453 218.766 14.76C219.326 14.2747 219.979 14.032 220.726 14.032C221.351 14.032 221.92 14.2093 222.434 14.564C222.956 14.9093 223.33 15.3807 223.554 15.978L222.728 16.454C222.588 15.9967 222.336 15.6373 221.972 15.376C221.617 15.1147 221.206 14.984 220.74 14.984C220.236 14.984 219.802 15.138 219.438 15.446C219.083 15.754 218.906 16.1553 218.906 16.65C218.906 16.9767 218.98 17.2707 219.13 17.532C219.288 17.7933 219.517 18.0827 219.816 18.4L222.77 21.55C223.04 21.018 223.218 20.3973 223.302 19.688L224.17 20.192C224.048 21.004 223.81 21.6993 223.456 22.278L224.772 23.678ZM219.956 23.216C220.889 23.216 221.636 22.9267 222.196 22.348L219.312 19.282C218.761 19.4873 218.36 19.7813 218.108 20.164C217.865 20.5373 217.744 20.9387 217.744 21.368C217.744 21.9373 217.94 22.39 218.332 22.726C218.733 23.0527 219.274 23.216 219.956 23.216ZM237.907 16.832C238.691 16.832 239.321 17.084 239.797 17.588C240.282 18.092 240.525 18.7733 240.525 19.632V24H239.601V19.632C239.601 19.0253 239.442 18.5587 239.125 18.232C238.817 17.896 238.406 17.728 237.893 17.728C237.314 17.728 236.843 17.924 236.479 18.316C236.124 18.6987 235.947 19.3007 235.947 20.122V24H235.023V19.632C235.023 19.016 234.874 18.5447 234.575 18.218C234.286 17.8913 233.889 17.728 233.385 17.728C232.825 17.728 232.349 17.924 231.957 18.316C231.565 18.708 231.369 19.31 231.369 20.122V24H230.445V17H231.369V18.022C231.873 17.2287 232.587 16.832 233.511 16.832C234.519 16.832 235.228 17.2567 235.639 18.106C236.143 17.2567 236.899 16.832 237.907 16.832ZM248.598 23.118C247.889 23.818 247.021 24.168 245.994 24.168C244.967 24.168 244.095 23.818 243.376 23.118C242.667 22.4087 242.312 21.536 242.312 20.5C242.312 19.464 242.667 18.596 243.376 17.896C244.095 17.1867 244.967 16.832 245.994 16.832C247.021 16.832 247.889 17.1867 248.598 17.896C249.317 18.596 249.676 19.464 249.676 20.5C249.676 21.536 249.317 22.4087 248.598 23.118ZM244.034 22.474C244.566 23.006 245.219 23.272 245.994 23.272C246.769 23.272 247.422 23.006 247.954 22.474C248.486 21.9327 248.752 21.2747 248.752 20.5C248.752 19.7253 248.486 19.072 247.954 18.54C247.422 17.9987 246.769 17.728 245.994 17.728C245.219 17.728 244.566 17.9987 244.034 18.54C243.502 19.072 243.236 19.7253 243.236 20.5C243.236 21.2747 243.502 21.9327 244.034 22.474ZM252.566 18.162C252.996 17.3127 253.733 16.888 254.778 16.888V17.784C254.144 17.784 253.616 17.9707 253.196 18.344C252.776 18.7173 252.566 19.3053 252.566 20.108V24H251.642V17H252.566V18.162ZM259.275 16.832C260.311 16.832 261.146 17.2007 261.781 17.938C262.425 18.666 262.747 19.5293 262.747 20.528C262.747 20.6307 262.737 20.7753 262.719 20.962H256.573C256.666 21.6713 256.965 22.236 257.469 22.656C257.982 23.0667 258.612 23.272 259.359 23.272C259.891 23.272 260.348 23.1647 260.731 22.95C261.123 22.726 261.417 22.4367 261.613 22.082L262.425 22.558C262.117 23.0527 261.697 23.4447 261.165 23.734C260.633 24.0233 260.026 24.168 259.345 24.168C258.243 24.168 257.347 23.8227 256.657 23.132C255.966 22.4413 255.621 21.564 255.621 20.5C255.621 19.4547 255.961 18.582 256.643 17.882C257.324 17.182 258.201 16.832 259.275 16.832ZM259.275 17.728C258.547 17.728 257.935 17.9473 257.441 18.386C256.955 18.8153 256.666 19.3753 256.573 20.066H261.795C261.701 19.3287 261.417 18.7547 260.941 18.344C260.465 17.9333 259.909 17.728 259.275 17.728ZM265.252 23.916C265.103 24.0653 264.921 24.14 264.706 24.14C264.491 24.14 264.309 24.0653 264.16 23.916C264.011 23.7667 263.936 23.5847 263.936 23.37C263.936 23.1553 264.011 22.9733 264.16 22.824C264.309 22.6747 264.491 22.6 264.706 22.6C264.921 22.6 265.103 22.6747 265.252 22.824C265.401 22.9733 265.476 23.1553 265.476 23.37C265.476 23.5847 265.401 23.7667 265.252 23.916ZM268.899 23.916C268.749 24.0653 268.567 24.14 268.353 24.14C268.138 24.14 267.956 24.0653 267.807 23.916C267.657 23.7667 267.583 23.5847 267.583 23.37C267.583 23.1553 267.657 22.9733 267.807 22.824C267.956 22.6747 268.138 22.6 268.353 22.6C268.567 22.6 268.749 22.6747 268.899 22.824C269.048 22.9733 269.123 23.1553 269.123 23.37C269.123 23.5847 269.048 23.7667 268.899 23.916ZM272.545 23.916C272.396 24.0653 272.214 24.14 271.999 24.14C271.784 24.14 271.602 24.0653 271.453 23.916C271.304 23.7667 271.229 23.5847 271.229 23.37C271.229 23.1553 271.304 22.9733 271.453 22.824C271.602 22.6747 271.784 22.6 271.999 22.6C272.214 22.6 272.396 22.6747 272.545 22.824C272.694 22.9733 272.769 23.1553 272.769 23.37C272.769 23.5847 272.694 23.7667 272.545 23.916ZM276.192 23.916C276.042 24.0653 275.86 24.14 275.646 24.14C275.431 24.14 275.249 24.0653 275.1 23.916C274.95 23.7667 274.876 23.5847 274.876 23.37C274.876 23.1553 274.95 22.9733 275.1 22.824C275.249 22.6747 275.431 22.6 275.646 22.6C275.86 22.6 276.042 22.6747 276.192 22.824C276.341 22.9733 276.416 23.1553 276.416 23.37C276.416 23.5847 276.341 23.7667 276.192 23.916Z" fill="#8390A2"/>
</svg>
