<svg width="439" height="115" viewBox="0 0 439 115" fill="none" xmlns="http://www.w3.org/2000/svg">
<path d="M8.08 17.76C5.96 17.76 4.20667 17.06 2.82 15.66C1.44667 14.26 0.76 12.54 0.76 10.5C0.76 8.46 1.44667 6.74 2.82 5.34C4.20667 3.94 5.96 3.24 8.08 3.24C9.36 3.24 10.5333 3.54667 11.6 4.16C12.68 4.77333 13.52 5.6 14.12 6.64L12.5 7.58C12.1 6.80667 11.5 6.19333 10.7 5.74C9.91333 5.27333 9.04 5.04 8.08 5.04C6.46667 5.04 5.14667 5.56 4.12 6.6C3.10667 7.64 2.6 8.94 2.6 10.5C2.6 12.0467 3.10667 13.34 4.12 14.38C5.14667 15.42 6.46667 15.94 8.08 15.94C9.04 15.94 9.91333 15.7133 10.7 15.26C11.5 14.7933 12.1 14.18 12.5 13.42L14.12 14.34C13.5333 15.38 12.7 16.2133 11.62 16.84C10.54 17.4533 9.36 17.76 8.08 17.76ZM23.6052 7.5H25.3452V17.5H23.6052V16.06C22.8985 17.1933 21.8185 17.76 20.3652 17.76C19.1918 17.76 18.2518 17.3933 17.5452 16.66C16.8385 15.9133 16.4852 14.9067 16.4852 13.64V7.5H18.2252V13.54C18.2252 14.3533 18.4452 14.9867 18.8852 15.44C19.3252 15.88 19.9318 16.1 20.7052 16.1C21.5718 16.1 22.2718 15.8333 22.8052 15.3C23.3385 14.7533 23.6052 13.92 23.6052 12.8V7.5ZM30.3342 9.18C30.9076 7.94 31.9476 7.32 33.4542 7.32V9.14C32.6009 9.1 31.8676 9.32667 31.2542 9.82C30.6409 10.3133 30.3342 11.1067 30.3342 12.2V17.5H28.5942V7.5H30.3342V9.18ZM37.4967 9.18C38.0701 7.94 39.1101 7.32 40.6167 7.32V9.14C39.7634 9.1 39.0301 9.32667 38.4167 9.82C37.8034 10.3133 37.4967 11.1067 37.4967 12.2V17.5H35.7567V7.5H37.4967V9.18ZM43.5923 13.3C43.7657 14.1933 44.1723 14.8867 44.8123 15.38C45.4657 15.8733 46.2657 16.12 47.2123 16.12C48.5323 16.12 49.4923 15.6333 50.0923 14.66L51.5723 15.5C50.599 17.0067 49.1323 17.76 47.1723 17.76C45.5857 17.76 44.2923 17.2667 43.2923 16.28C42.3057 15.28 41.8123 14.02 41.8123 12.5C41.8123 10.9933 42.299 9.74 43.2723 8.74C44.2457 7.74 45.5057 7.24 47.0523 7.24C48.519 7.24 49.7123 7.76 50.6323 8.8C51.5657 9.82667 52.0323 11.0667 52.0323 12.52C52.0323 12.7733 52.0123 13.0333 51.9723 13.3H43.5923ZM47.0523 8.88C46.119 8.88 45.3457 9.14667 44.7323 9.68C44.119 10.2 43.739 10.9 43.5923 11.78H50.2723C50.1257 10.8333 49.7523 10.1133 49.1523 9.62C48.5523 9.12667 47.8523 8.88 47.0523 8.88ZM59.6125 7.24C60.7858 7.24 61.7258 7.61333 62.4325 8.36C63.1392 9.09333 63.4925 10.0933 63.4925 11.36V17.5H61.7525V11.46C61.7525 10.6467 61.5325 10.02 61.0925 9.58C60.6525 9.12667 60.0458 8.9 59.2725 8.9C58.4058 8.9 57.7058 9.17333 57.1725 9.72C56.6392 10.2533 56.3725 11.08 56.3725 12.2V17.5H54.6325V7.5H56.3725V8.94C57.0792 7.80667 58.1592 7.24 59.6125 7.24ZM71.9616 9.18H69.3016V14.6C69.3016 15.0933 69.3949 15.4467 69.5816 15.66C69.7816 15.86 70.0816 15.9667 70.4816 15.98C70.8816 15.98 71.3749 15.9667 71.9616 15.94V17.5C70.4416 17.7 69.3282 17.58 68.6216 17.14C67.9149 16.6867 67.5616 15.84 67.5616 14.6V9.18H65.5816V7.5H67.5616V5.22L69.3016 4.7V7.5H71.9616V9.18ZM85.8002 7.24C87.2002 7.24 88.3935 7.75333 89.3802 8.78C90.3668 9.79333 90.8602 11.0333 90.8602 12.5C90.8602 13.9667 90.3668 15.2133 89.3802 16.24C88.3935 17.2533 87.2002 17.76 85.8002 17.76C84.1468 17.76 82.8868 17.1 82.0202 15.78V17.5H80.2802V3.5H82.0202V9.22C82.8868 7.9 84.1468 7.24 85.8002 7.24ZM85.5802 16.08C86.5802 16.08 87.4202 15.74 88.1002 15.06C88.7802 14.3667 89.1202 13.5133 89.1202 12.5C89.1202 11.4867 88.7802 10.64 88.1002 9.96C87.4202 9.26667 86.5802 8.92 85.5802 8.92C84.5668 8.92 83.7202 9.26667 83.0402 9.96C82.3602 10.64 82.0202 11.4867 82.0202 12.5C82.0202 13.5133 82.3602 14.3667 83.0402 15.06C83.7202 15.74 84.5668 16.08 85.5802 16.08ZM94.4164 5.68C94.0831 5.68 93.8031 5.56667 93.5764 5.34C93.3497 5.11333 93.2364 4.84 93.2364 4.52C93.2364 4.2 93.3497 3.92667 93.5764 3.7C93.8031 3.46 94.0831 3.34 94.4164 3.34C94.7364 3.34 95.0097 3.46 95.2364 3.7C95.4631 3.92667 95.5764 4.2 95.5764 4.52C95.5764 4.84 95.4631 5.11333 95.2364 5.34C95.0097 5.56667 94.7364 5.68 94.4164 5.68ZM93.5364 17.5V7.5H95.2764V17.5H93.5364ZM106.811 3.5H108.551V17.5H106.811V15.78C105.944 17.1 104.684 17.76 103.031 17.76C101.631 17.76 100.438 17.2533 99.4509 16.24C98.4643 15.2133 97.9709 13.9667 97.9709 12.5C97.9709 11.0333 98.4643 9.79333 99.4509 8.78C100.438 7.75333 101.631 7.24 103.031 7.24C104.684 7.24 105.944 7.9 106.811 9.22V3.5ZM103.251 16.08C104.264 16.08 105.111 15.74 105.791 15.06C106.471 14.3667 106.811 13.5133 106.811 12.5C106.811 11.4867 106.471 10.64 105.791 9.96C105.111 9.26667 104.264 8.92 103.251 8.92C102.251 8.92 101.411 9.26667 100.731 9.96C100.051 10.64 99.7109 11.4867 99.7109 12.5C99.7109 13.5133 100.051 14.3667 100.731 15.06C101.411 15.74 102.251 16.08 103.251 16.08Z" fill="#465364"/>
<path d="M14.016 56.852C16.0853 58.0893 17.12 59.892 17.12 62.26C17.12 64.3293 16.3947 65.9613 14.944 67.156C13.5147 68.3507 11.5627 68.948 9.088 68.948C6.592 68.948 4.62933 68.3507 3.2 67.156C1.77067 65.9613 1.056 64.3293 1.056 62.26C1.056 59.892 2.08 58.0893 4.128 56.852C2.57067 55.7213 1.792 54.1747 1.792 52.212C1.792 50.1427 2.48533 48.532 3.872 47.38C5.28 46.228 7.01867 45.652 9.088 45.652C11.1573 45.652 12.8853 46.228 14.272 47.38C15.6587 48.532 16.352 50.1427 16.352 52.212C16.352 54.196 15.5733 55.7427 14.016 56.852ZM11.168 50.516C10.6347 50.0467 9.94133 49.812 9.088 49.812C8.23467 49.812 7.54133 50.0467 7.008 50.516C6.47467 50.9853 6.208 51.6253 6.208 52.436C6.208 53.2467 6.47467 53.8973 7.008 54.388C7.54133 54.8573 8.23467 55.092 9.088 55.092C9.94133 55.092 10.6347 54.8573 11.168 54.388C11.7013 53.8973 11.968 53.2467 11.968 52.436C11.968 51.6253 11.7013 50.9853 11.168 50.516ZM6.432 63.988C7.11467 64.5213 8 64.788 9.088 64.788C10.176 64.788 11.0507 64.5213 11.712 63.988C12.3947 63.4333 12.736 62.6653 12.736 61.684C12.736 60.724 12.3947 59.9773 11.712 59.444C11.0507 58.8893 10.176 58.612 9.088 58.612C8 58.612 7.11467 58.8893 6.432 59.444C5.77067 59.9773 5.44 60.724 5.44 61.684C5.44 62.6653 5.77067 63.4333 6.432 63.988ZM25.9955 68.116C25.4622 68.6493 24.8222 68.916 24.0755 68.916C23.3288 68.916 22.6888 68.6493 22.1555 68.116C21.6222 67.5827 21.3555 66.9427 21.3555 66.196C21.3555 65.4493 21.6222 64.8093 22.1555 64.276C22.6888 63.7427 23.3288 63.476 24.0755 63.476C24.8222 63.476 25.4622 63.7427 25.9955 64.276C26.5288 64.8093 26.7955 65.4493 26.7955 66.196C26.7955 66.9427 26.5288 67.5827 25.9955 68.116ZM41.246 55.188C42.7607 55.636 43.9873 56.4253 44.926 57.556C45.886 58.6653 46.366 60.0093 46.366 61.588C46.366 63.892 45.5873 65.6947 44.03 66.996C42.494 68.2973 40.606 68.948 38.366 68.948C36.6167 68.948 35.0487 68.5533 33.662 67.764C32.2967 66.9533 31.3047 65.7693 30.686 64.212L34.462 62.036C35.0167 63.764 36.318 64.628 38.366 64.628C39.4967 64.628 40.3713 64.3613 40.99 63.828C41.63 63.2733 41.95 62.5267 41.95 61.588C41.95 60.6707 41.63 59.9347 40.99 59.38C40.3713 58.8253 39.4967 58.548 38.366 58.548H37.406L35.71 55.988L40.126 50.228H31.358V46.1H45.438V49.748L41.246 55.188ZM63.0035 56.852C65.0728 58.0893 66.1075 59.892 66.1075 62.26C66.1075 64.3293 65.3822 65.9613 63.9315 67.156C62.5022 68.3507 60.5502 68.948 58.0755 68.948C55.5795 68.948 53.6168 68.3507 52.1875 67.156C50.7582 65.9613 50.0435 64.3293 50.0435 62.26C50.0435 59.892 51.0675 58.0893 53.1155 56.852C51.5582 55.7213 50.7795 54.1747 50.7795 52.212C50.7795 50.1427 51.4728 48.532 52.8595 47.38C54.2675 46.228 56.0062 45.652 58.0755 45.652C60.1448 45.652 61.8728 46.228 63.2595 47.38C64.6462 48.532 65.3395 50.1427 65.3395 52.212C65.3395 54.196 64.5608 55.7427 63.0035 56.852ZM60.1555 50.516C59.6222 50.0467 58.9288 49.812 58.0755 49.812C57.2222 49.812 56.5288 50.0467 55.9955 50.516C55.4622 50.9853 55.1955 51.6253 55.1955 52.436C55.1955 53.2467 55.4622 53.8973 55.9955 54.388C56.5288 54.8573 57.2222 55.092 58.0755 55.092C58.9288 55.092 59.6222 54.8573 60.1555 54.388C60.6888 53.8973 60.9555 53.2467 60.9555 52.436C60.9555 51.6253 60.6888 50.9853 60.1555 50.516ZM55.4195 63.988C56.1022 64.5213 56.9875 64.788 58.0755 64.788C59.1635 64.788 60.0382 64.5213 60.6995 63.988C61.3822 63.4333 61.7235 62.6653 61.7235 61.684C61.7235 60.724 61.3822 59.9773 60.6995 59.444C60.0382 58.8893 59.1635 58.612 58.0755 58.612C56.9875 58.612 56.1022 58.8893 55.4195 59.444C54.7582 59.9773 54.4275 60.724 54.4275 61.684C54.4275 62.6653 54.7582 63.4333 55.4195 63.988ZM84.871 64.276H94.311V68.5H80.455V46.1H94.151V50.324H84.871V55.092H93.351V59.252H84.871V64.276ZM113.84 46.1V50.324H107.792V68.5H103.376V50.324H97.3597V46.1H113.84ZM130.641 46.1H135.025V68.5H130.641V59.22H122.321V68.5H117.905V46.1H122.321V54.996H130.641V46.1Z" fill="#293341"/>
<path d="M0.8 102.068V100.436H7.68V102.068H0.8ZM0.8 105.348V103.716H7.68V105.348H0.8ZM21.7484 105.428C21.7484 106.335 21.455 107.076 20.8684 107.652C20.2924 108.217 19.535 108.559 18.5964 108.676V110.1H17.5564V108.692C16.671 108.639 15.9137 108.399 15.2844 107.972C14.655 107.545 14.2017 106.964 13.9244 106.228L15.5084 105.316C15.8817 106.255 16.5644 106.777 17.5564 106.884V103.556C17.0764 103.375 16.687 103.215 16.3884 103.076C16.0897 102.927 15.7697 102.724 15.4284 102.468C15.0977 102.212 14.847 101.903 14.6764 101.54C14.5164 101.167 14.4364 100.735 14.4364 100.244C14.4364 99.348 14.735 98.6227 15.3324 98.068C15.9297 97.5133 16.671 97.1933 17.5564 97.108V95.7H18.5964V97.124C20.0257 97.316 21.0177 98.0467 21.5724 99.316L20.0204 100.212C19.743 99.5187 19.2684 99.0973 18.5964 98.948V102.116C18.9377 102.244 19.1937 102.345 19.3644 102.42C19.5457 102.495 19.7804 102.607 20.0684 102.756C20.367 102.905 20.5964 103.055 20.7564 103.204C20.9164 103.353 21.0817 103.535 21.2524 103.748C21.4337 103.961 21.5617 104.212 21.6364 104.5C21.711 104.777 21.7484 105.087 21.7484 105.428ZM16.2764 100.244C16.2764 100.575 16.3724 100.847 16.5644 101.06C16.767 101.273 17.0977 101.487 17.5564 101.7V98.916C17.1617 98.98 16.847 99.1293 16.6124 99.364C16.3884 99.5987 16.2764 99.892 16.2764 100.244ZM18.5964 106.868C19.023 106.783 19.3484 106.612 19.5724 106.356C19.7964 106.1 19.9084 105.796 19.9084 105.444C19.9084 105.092 19.8017 104.809 19.5884 104.596C19.375 104.372 19.0444 104.159 18.5964 103.956V106.868ZM23.2016 108.5V107.06L27.1056 103.076C28.055 102.127 28.5296 101.305 28.5296 100.612C28.5296 100.068 28.3643 99.6467 28.0336 99.348C27.7136 99.0387 27.303 98.884 26.8016 98.884C25.863 98.884 25.1696 99.348 24.7216 100.276L23.1696 99.364C23.5216 98.6173 24.0176 98.052 24.6576 97.668C25.2976 97.284 26.007 97.092 26.7856 97.092C27.767 97.092 28.6096 97.4013 29.3136 98.02C30.0176 98.6387 30.3696 99.4813 30.3696 100.548C30.3696 101.689 29.735 102.905 28.4656 104.196L25.9376 106.724H30.5776V108.5H23.2016ZM35.8981 101.524C36.9648 101.524 37.8661 101.844 38.6021 102.484C39.3381 103.113 39.7061 103.988 39.7061 105.108C39.7061 106.228 39.3275 107.108 38.5701 107.748C37.8128 108.388 36.8848 108.708 35.7861 108.708C34.9008 108.708 34.1168 108.505 33.4341 108.1C32.7515 107.684 32.2661 107.087 31.9781 106.308L33.5621 105.396C33.8608 106.409 34.6021 106.916 35.7861 106.916C36.4155 106.916 36.9168 106.756 37.2901 106.436C37.6741 106.105 37.8661 105.663 37.8661 105.108C37.8661 104.553 37.6795 104.116 37.3061 103.796C36.9328 103.476 36.4368 103.316 35.8181 103.316H32.5541L32.9861 97.3H39.2261V99.028H34.6821L34.4901 101.524H35.8981ZM43.7924 106.58L42.6724 110.74H41.2324L41.8724 106.58H43.7924ZM45.3388 97.3H52.4588V98.9L48.5228 108.5H46.5868L50.4588 99.06H45.3388V97.3ZM53.6625 97.3H60.7825V98.9L56.8465 108.5H54.9105L58.7825 99.06H53.6625V97.3ZM65.1775 101.524C66.2442 101.524 67.1455 101.844 67.8815 102.484C68.6175 103.113 68.9855 103.988 68.9855 105.108C68.9855 106.228 68.6068 107.108 67.8495 107.748C67.0922 108.388 66.1642 108.708 65.0655 108.708C64.1802 108.708 63.3962 108.505 62.7135 108.1C62.0308 107.684 61.5455 107.087 61.2575 106.308L62.8415 105.396C63.1402 106.409 63.8815 106.916 65.0655 106.916C65.6948 106.916 66.1962 106.756 66.5695 106.436C66.9535 106.105 67.1455 105.663 67.1455 105.108C67.1455 104.553 66.9588 104.116 66.5855 103.796C66.2122 103.476 65.7162 103.316 65.0975 103.316H61.8335L62.2655 97.3H68.5055V99.028H63.9615L63.7695 101.524H65.1775Z" fill="#465364"/>
<path d="M219 0.5L219 114.5" stroke="#F1F4F5" stroke-linecap="round"/>
<path d="M272.5 10.24C273.14 10.5467 273.647 10.9867 274.02 11.56C274.407 12.1333 274.6 12.7933 274.6 13.54C274.6 14.66 274.207 15.6 273.42 16.36C272.633 17.12 271.673 17.5 270.54 17.5H264.5V3.5H270.1C271.193 3.5 272.12 3.86667 272.88 4.6C273.64 5.33333 274.02 6.24 274.02 7.32C274.02 8.56 273.513 9.53333 272.5 10.24ZM270.1 5.24H266.36V9.52H270.1C270.687 9.52 271.18 9.31333 271.58 8.9C271.98 8.48667 272.18 7.98 272.18 7.38C272.18 6.79333 271.973 6.29333 271.56 5.88C271.16 5.45333 270.673 5.24 270.1 5.24ZM270.54 15.76C271.167 15.76 271.693 15.54 272.12 15.1C272.547 14.66 272.76 14.12 272.76 13.48C272.76 12.8533 272.54 12.32 272.1 11.88C271.673 11.44 271.153 11.22 270.54 11.22H266.36V15.76H270.54ZM278.105 5.68C277.771 5.68 277.491 5.56667 277.265 5.34C277.038 5.11333 276.925 4.84 276.925 4.52C276.925 4.2 277.038 3.92667 277.265 3.7C277.491 3.46 277.771 3.34 278.105 3.34C278.425 3.34 278.698 3.46 278.925 3.7C279.151 3.92667 279.265 4.2 279.265 4.52C279.265 4.84 279.151 5.11333 278.925 5.34C278.698 5.56667 278.425 5.68 278.105 5.68ZM277.225 17.5V7.5H278.965V17.5H277.225ZM290.499 3.5H292.239V17.5H290.499V15.78C289.633 17.1 288.373 17.76 286.719 17.76C285.319 17.76 284.126 17.2533 283.139 16.24C282.153 15.2133 281.659 13.9667 281.659 12.5C281.659 11.0333 282.153 9.79333 283.139 8.78C284.126 7.75333 285.319 7.24 286.719 7.24C288.373 7.24 289.633 7.9 290.499 9.22V3.5ZM286.939 16.08C287.953 16.08 288.799 15.74 289.479 15.06C290.159 14.3667 290.499 13.5133 290.499 12.5C290.499 11.4867 290.159 10.64 289.479 9.96C288.799 9.26667 287.953 8.92 286.939 8.92C285.939 8.92 285.099 9.26667 284.419 9.96C283.739 10.64 283.399 11.4867 283.399 12.5C283.399 13.5133 283.739 14.3667 284.419 15.06C285.099 15.74 285.939 16.08 286.939 16.08ZM302.295 13.3C302.469 14.1933 302.875 14.8867 303.515 15.38C304.169 15.8733 304.969 16.12 305.915 16.12C307.235 16.12 308.195 15.6333 308.795 14.66L310.275 15.5C309.302 17.0067 307.835 17.76 305.875 17.76C304.289 17.76 302.995 17.2667 301.995 16.28C301.009 15.28 300.515 14.02 300.515 12.5C300.515 10.9933 301.002 9.74 301.975 8.74C302.949 7.74 304.209 7.24 305.755 7.24C307.222 7.24 308.415 7.76 309.335 8.8C310.269 9.82667 310.735 11.0667 310.735 12.52C310.735 12.7733 310.715 13.0333 310.675 13.3H302.295ZM305.755 8.88C304.822 8.88 304.049 9.14667 303.435 9.68C302.822 10.2 302.442 10.9 302.295 11.78H308.975C308.829 10.8333 308.455 10.1133 307.855 9.62C307.255 9.12667 306.555 8.88 305.755 8.88ZM318.316 7.24C319.489 7.24 320.429 7.61333 321.136 8.36C321.842 9.09333 322.196 10.0933 322.196 11.36V17.5H320.456V11.46C320.456 10.6467 320.236 10.02 319.796 9.58C319.356 9.12667 318.749 8.9 317.976 8.9C317.109 8.9 316.409 9.17333 315.876 9.72C315.342 10.2533 315.076 11.08 315.076 12.2V17.5H313.336V7.5H315.076V8.94C315.782 7.80667 316.862 7.24 318.316 7.24ZM333.505 3.5H335.245V17.5H333.505V15.78C332.638 17.1 331.378 17.76 329.725 17.76C328.325 17.76 327.131 17.2533 326.145 16.24C325.158 15.2133 324.665 13.9667 324.665 12.5C324.665 11.0333 325.158 9.79333 326.145 8.78C327.131 7.75333 328.325 7.24 329.725 7.24C331.378 7.24 332.638 7.9 333.505 9.22V3.5ZM329.945 16.08C330.958 16.08 331.805 15.74 332.485 15.06C333.165 14.3667 333.505 13.5133 333.505 12.5C333.505 11.4867 333.165 10.64 332.485 9.96C331.805 9.26667 330.958 8.92 329.945 8.92C328.945 8.92 328.105 9.26667 327.425 9.96C326.745 10.64 326.405 11.4867 326.405 12.5C326.405 13.5133 326.745 14.3667 327.425 15.06C328.105 15.74 328.945 16.08 329.945 16.08ZM339.361 5.68C339.028 5.68 338.748 5.56667 338.521 5.34C338.294 5.11333 338.181 4.84 338.181 4.52C338.181 4.2 338.294 3.92667 338.521 3.7C338.748 3.46 339.028 3.34 339.361 3.34C339.681 3.34 339.954 3.46 340.181 3.7C340.408 3.92667 340.521 4.2 340.521 4.52C340.521 4.84 340.408 5.11333 340.181 5.34C339.954 5.56667 339.681 5.68 339.361 5.68ZM338.481 17.5V7.5H340.221V17.5H338.481ZM348.455 7.24C349.629 7.24 350.569 7.61333 351.275 8.36C351.982 9.09333 352.335 10.0933 352.335 11.36V17.5H350.595V11.46C350.595 10.6467 350.375 10.02 349.935 9.58C349.495 9.12667 348.889 8.9 348.115 8.9C347.249 8.9 346.549 9.17333 346.015 9.72C345.482 10.2533 345.215 11.08 345.215 12.2V17.5H343.475V7.5H345.215V8.94C345.922 7.80667 347.002 7.24 348.455 7.24ZM363.665 7.5H365.385V17.08C365.385 18.56 364.885 19.7067 363.885 20.52C362.885 21.3467 361.685 21.76 360.285 21.76C359.165 21.76 358.198 21.5467 357.385 21.12C356.571 20.7067 355.958 20.1067 355.545 19.32L357.065 18.46C357.611 19.58 358.698 20.14 360.325 20.14C361.365 20.14 362.178 19.8667 362.765 19.32C363.365 18.7733 363.665 18.0267 363.665 17.08V15.66C362.785 16.9933 361.531 17.66 359.905 17.66C358.478 17.66 357.271 17.1533 356.285 16.14C355.298 15.1267 354.805 13.8933 354.805 12.44C354.805 10.9867 355.298 9.76 356.285 8.76C357.271 7.74667 358.478 7.24 359.905 7.24C361.545 7.24 362.798 7.9 363.665 9.22V7.5ZM357.565 14.98C358.245 15.66 359.091 16 360.105 16C361.118 16 361.965 15.66 362.645 14.98C363.325 14.3 363.665 13.4533 363.665 12.44C363.665 11.44 363.325 10.6 362.645 9.92C361.965 9.24 361.118 8.9 360.105 8.9C359.091 8.9 358.245 9.24 357.565 9.92C356.885 10.6 356.545 11.44 356.545 12.44C356.545 13.4533 356.885 14.3 357.565 14.98ZM375.101 5.68C374.767 5.68 374.487 5.56667 374.261 5.34C374.034 5.11333 373.921 4.84 373.921 4.52C373.921 4.2 374.034 3.92667 374.261 3.7C374.487 3.46 374.767 3.34 375.101 3.34C375.421 3.34 375.694 3.46 375.921 3.7C376.147 3.92667 376.261 4.2 376.261 4.52C376.261 4.84 376.147 5.11333 375.921 5.34C375.694 5.56667 375.421 5.68 375.101 5.68ZM374.221 17.5V7.5H375.961V17.5H374.221ZM384.195 7.24C385.369 7.24 386.309 7.61333 387.015 8.36C387.722 9.09333 388.075 10.0933 388.075 11.36V17.5H386.335V11.46C386.335 10.6467 386.115 10.02 385.675 9.58C385.235 9.12667 384.629 8.9 383.855 8.9C382.989 8.9 382.289 9.17333 381.755 9.72C381.222 10.2533 380.955 11.08 380.955 12.2V17.5H379.215V7.5H380.955V8.94C381.662 7.80667 382.742 7.24 384.195 7.24Z" fill="#465364"/>
<path d="M272.12 53.364C274.445 53.428 276.333 54.1853 277.784 55.636C279.235 57.0653 279.96 58.9 279.96 61.14C279.96 63.4227 279.203 65.3 277.688 66.772C276.173 68.2227 274.221 68.948 271.832 68.948C269.443 68.948 267.491 68.2227 265.976 66.772C264.483 65.3213 263.736 63.444 263.736 61.14C263.736 59.4333 264.173 57.9293 265.048 56.628L272.024 46.1H277.08L272.12 53.364ZM269.176 63.796C269.88 64.4573 270.765 64.788 271.832 64.788C272.899 64.788 273.784 64.4573 274.488 63.796C275.213 63.1347 275.576 62.2493 275.576 61.14C275.576 60.052 275.213 59.1773 274.488 58.516C273.784 57.8547 272.899 57.524 271.832 57.524C270.765 57.524 269.88 57.8547 269.176 58.516C268.472 59.156 268.12 60.0307 268.12 61.14C268.12 62.2493 268.472 63.1347 269.176 63.796Z" fill="#FE7676"/>
<path d="M270.76 97.3H272.6V108.5H270.76V103.652H265.96V108.5H264.12V97.3H265.96V101.892H270.76V97.3ZM278.983 108.708C277.809 108.708 276.812 108.303 275.991 107.492C275.169 106.681 274.759 105.684 274.759 104.5C274.759 103.316 275.169 102.319 275.991 101.508C276.812 100.697 277.809 100.292 278.983 100.292C280.167 100.292 281.164 100.697 281.975 101.508C282.796 102.319 283.207 103.316 283.207 104.5C283.207 105.684 282.796 106.681 281.975 107.492C281.164 108.303 280.167 108.708 278.983 108.708ZM277.207 106.308C277.687 106.788 278.279 107.028 278.983 107.028C279.687 107.028 280.279 106.788 280.759 106.308C281.239 105.828 281.479 105.225 281.479 104.5C281.479 103.775 281.239 103.172 280.759 102.692C280.279 102.212 279.687 101.972 278.983 101.972C278.279 101.972 277.687 102.212 277.207 102.692C276.727 103.172 276.487 103.775 276.487 104.5C276.487 105.225 276.727 105.828 277.207 106.308ZM290.641 100.5H292.369V108.5H290.641V107.476C290.119 108.297 289.292 108.708 288.161 108.708C287.244 108.708 286.503 108.415 285.937 107.828C285.372 107.241 285.089 106.436 285.089 105.412V100.5H286.817V105.236C286.817 105.833 286.977 106.292 287.297 106.612C287.617 106.932 288.055 107.092 288.609 107.092C289.217 107.092 289.708 106.905 290.081 106.532C290.455 106.148 290.641 105.567 290.641 104.788V100.5ZM296.598 101.844C297.035 100.852 297.857 100.356 299.062 100.356V102.228C298.401 102.185 297.825 102.345 297.334 102.708C296.843 103.06 296.598 103.647 296.598 104.468V108.5H294.87V100.5H296.598V101.844ZM302.089 102.708C302.089 102.975 302.233 103.188 302.521 103.348C302.82 103.497 303.177 103.631 303.593 103.748C304.02 103.855 304.447 103.983 304.873 104.132C305.3 104.281 305.657 104.537 305.945 104.9C306.244 105.252 306.393 105.7 306.393 106.244C306.393 107.012 306.095 107.615 305.497 108.052C304.911 108.489 304.169 108.708 303.273 108.708C302.484 108.708 301.807 108.543 301.241 108.212C300.676 107.881 300.265 107.423 300.009 106.836L301.497 105.972C301.775 106.74 302.367 107.124 303.273 107.124C304.18 107.124 304.633 106.825 304.633 106.228C304.633 105.972 304.484 105.764 304.185 105.604C303.897 105.444 303.54 105.311 303.113 105.204C302.697 105.087 302.276 104.953 301.849 104.804C301.423 104.655 301.06 104.409 300.761 104.068C300.473 103.716 300.329 103.273 300.329 102.74C300.329 102.004 300.607 101.412 301.161 100.964C301.727 100.516 302.425 100.292 303.257 100.292C303.919 100.292 304.505 100.441 305.017 100.74C305.54 101.028 305.94 101.433 306.217 101.956L304.761 102.772C304.484 102.164 303.983 101.86 303.257 101.86C302.927 101.86 302.649 101.935 302.425 102.084C302.201 102.223 302.089 102.431 302.089 102.708Z" fill="#465364"/>
<path d="M343.24 46.1H347.08V68.5H342.664V50.772L338.44 51.956L337.352 48.18L343.24 46.1ZM359.935 54.26C362.09 54.26 363.903 54.9107 365.375 56.212C366.847 57.492 367.583 59.284 367.583 61.588C367.583 63.892 366.804 65.6947 365.247 66.996C363.711 68.2973 361.823 68.948 359.583 68.948C357.77 68.948 356.17 68.5427 354.783 67.732C353.396 66.9213 352.394 65.7267 351.775 64.148L355.551 61.94C356.106 63.732 357.45 64.628 359.583 64.628C360.714 64.628 361.588 64.3613 362.207 63.828C362.847 63.2733 363.167 62.5267 363.167 61.588C363.167 60.6707 362.858 59.9347 362.239 59.38C361.62 58.8253 360.778 58.548 359.711 58.548H352.927L353.823 46.1H366.527V50.228H357.919L357.631 54.26H359.935Z" fill="#FE7676"/>
<path d="M348.84 97.3V108.5H347V100.516L343.592 106.148H343.368L339.96 100.5V108.5H338.12V97.3H340.104L343.48 102.9L346.872 97.3H348.84ZM353.073 98.98C352.86 99.1933 352.604 99.3 352.305 99.3C352.006 99.3 351.745 99.1933 351.521 98.98C351.308 98.756 351.201 98.4947 351.201 98.196C351.201 97.8973 351.308 97.6413 351.521 97.428C351.734 97.204 351.996 97.092 352.305 97.092C352.614 97.092 352.876 97.204 353.089 97.428C353.302 97.6413 353.409 97.8973 353.409 98.196C353.409 98.4947 353.297 98.756 353.073 98.98ZM351.441 108.5V100.5H353.169V108.5H351.441ZM359.863 100.292C360.781 100.292 361.522 100.585 362.087 101.172C362.653 101.759 362.935 102.564 362.935 103.588V108.5H361.207V103.764C361.207 103.167 361.047 102.708 360.727 102.388C360.407 102.068 359.97 101.908 359.415 101.908C358.807 101.908 358.317 102.1 357.943 102.484C357.57 102.857 357.383 103.433 357.383 104.212V108.5H355.655V100.5H357.383V101.524C357.906 100.703 358.733 100.292 359.863 100.292ZM366.828 102.708C366.828 102.975 366.972 103.188 367.26 103.348C367.559 103.497 367.916 103.631 368.332 103.748C368.759 103.855 369.185 103.983 369.612 104.132C370.039 104.281 370.396 104.537 370.684 104.9C370.983 105.252 371.132 105.7 371.132 106.244C371.132 107.012 370.833 107.615 370.236 108.052C369.649 108.489 368.908 108.708 368.012 108.708C367.223 108.708 366.545 108.543 365.98 108.212C365.415 107.881 365.004 107.423 364.748 106.836L366.236 105.972C366.513 106.74 367.105 107.124 368.012 107.124C368.919 107.124 369.372 106.825 369.372 106.228C369.372 105.972 369.223 105.764 368.924 105.604C368.636 105.444 368.279 105.311 367.852 105.204C367.436 105.087 367.015 104.953 366.588 104.804C366.161 104.655 365.799 104.409 365.5 104.068C365.212 103.716 365.068 103.273 365.068 102.74C365.068 102.004 365.345 101.412 365.9 100.964C366.465 100.516 367.164 100.292 367.996 100.292C368.657 100.292 369.244 100.441 369.756 100.74C370.279 101.028 370.679 101.433 370.956 101.956L369.5 102.772C369.223 102.164 368.721 101.86 367.996 101.86C367.665 101.86 367.388 101.935 367.164 102.084C366.94 102.223 366.828 102.431 366.828 102.708Z" fill="#465364"/>
<path d="M402.864 68.5V65.204L410.512 57.332C412.219 55.54 413.072 54.0467 413.072 52.852C413.072 51.9773 412.795 51.2733 412.24 50.74C411.707 50.2067 411.013 49.94 410.16 49.94C408.475 49.94 407.227 50.8147 406.416 52.564L402.704 50.388C403.408 48.852 404.421 47.6787 405.744 46.868C407.067 46.0573 408.517 45.652 410.096 45.652C412.123 45.652 413.861 46.292 415.312 47.572C416.763 48.8307 417.488 50.5373 417.488 52.692C417.488 55.0173 416.261 57.4067 413.808 59.86L409.424 64.244H417.84V68.5H402.864ZM437.31 53.428C437.31 55.156 436.862 56.6707 435.966 57.972H435.998L429.022 68.5H423.966L428.958 61.204C426.633 61.1613 424.734 60.4253 423.262 58.996C421.811 57.5453 421.086 55.6893 421.086 53.428C421.086 51.1453 421.833 49.2787 423.326 47.828C424.841 46.3773 426.793 45.652 429.182 45.652C431.593 45.652 433.545 46.3773 435.038 47.828C436.553 49.2573 437.31 51.124 437.31 53.428ZM425.47 53.428C425.47 54.5373 425.822 55.4227 426.526 56.084C427.251 56.7453 428.137 57.076 429.182 57.076C430.27 57.076 431.166 56.7453 431.87 56.084C432.574 55.4227 432.926 54.5373 432.926 53.428C432.926 52.3187 432.574 51.444 431.87 50.804C431.166 50.1427 430.27 49.812 429.182 49.812C428.137 49.812 427.251 50.1427 426.526 50.804C425.822 51.4653 425.47 52.34 425.47 53.428Z" fill="#FE7676"/>
<path d="M406.848 108.708C405.771 108.708 404.853 108.463 404.096 107.972C403.349 107.481 402.827 106.809 402.528 105.956L404.112 105.028C404.56 106.287 405.488 106.916 406.896 106.916C407.589 106.916 408.107 106.783 408.448 106.516C408.8 106.239 408.976 105.881 408.976 105.444C408.976 104.985 408.789 104.639 408.416 104.404C408.043 104.159 407.381 103.892 406.432 103.604C405.899 103.444 405.467 103.295 405.136 103.156C404.805 103.017 404.453 102.825 404.08 102.58C403.717 102.324 403.445 102.009 403.264 101.636C403.083 101.263 402.992 100.825 402.992 100.324C402.992 99.332 403.344 98.548 404.048 97.972C404.752 97.3853 405.6 97.092 406.592 97.092C407.488 97.092 408.272 97.3107 408.944 97.748C409.616 98.1853 410.133 98.788 410.496 99.556L408.944 100.452C408.475 99.4067 407.691 98.884 406.592 98.884C406.059 98.884 405.632 99.012 405.312 99.268C404.992 99.5133 404.832 99.8493 404.832 100.276C404.832 100.692 404.992 101.023 405.312 101.268C405.643 101.503 406.235 101.753 407.088 102.02C407.515 102.159 407.824 102.265 408.016 102.34C408.219 102.404 408.496 102.511 408.848 102.66C409.211 102.809 409.483 102.959 409.664 103.108C409.845 103.257 410.037 103.444 410.24 103.668C410.453 103.892 410.603 104.148 410.688 104.436C410.773 104.724 410.816 105.049 410.816 105.412C410.816 106.425 410.448 107.231 409.712 107.828C408.987 108.415 408.032 108.708 406.848 108.708ZM414.348 105.236C414.476 105.844 414.769 106.313 415.228 106.644C415.687 106.964 416.247 107.124 416.908 107.124C417.825 107.124 418.513 106.793 418.972 106.132L420.396 106.964C419.607 108.127 418.439 108.708 416.892 108.708C415.591 108.708 414.54 108.313 413.74 107.524C412.94 106.724 412.54 105.716 412.54 104.5C412.54 103.305 412.935 102.308 413.724 101.508C414.513 100.697 415.527 100.292 416.764 100.292C417.937 100.292 418.897 100.703 419.644 101.524C420.401 102.345 420.78 103.343 420.78 104.516C420.78 104.697 420.759 104.937 420.716 105.236H414.348ZM414.332 103.828H419.036C418.919 103.177 418.647 102.687 418.22 102.356C417.804 102.025 417.313 101.86 416.748 101.86C416.108 101.86 415.575 102.036 415.148 102.388C414.721 102.74 414.449 103.22 414.332 103.828ZM426.51 108.708C425.304 108.708 424.296 108.303 423.486 107.492C422.686 106.681 422.286 105.684 422.286 104.5C422.286 103.305 422.686 102.308 423.486 101.508C424.296 100.697 425.304 100.292 426.51 100.292C427.288 100.292 427.998 100.479 428.638 100.852C429.278 101.225 429.758 101.727 430.078 102.356L428.59 103.22C428.408 102.836 428.131 102.537 427.758 102.324C427.395 102.1 426.974 101.988 426.494 101.988C425.79 101.988 425.198 102.228 424.718 102.708C424.248 103.188 424.014 103.785 424.014 104.5C424.014 105.215 424.248 105.812 424.718 106.292C425.198 106.772 425.79 107.012 426.494 107.012C426.963 107.012 427.384 106.9 427.758 106.676C428.142 106.452 428.43 106.153 428.622 105.78L430.11 106.628C429.768 107.268 429.278 107.775 428.638 108.148C427.998 108.521 427.288 108.708 426.51 108.708ZM433.344 102.708C433.344 102.975 433.488 103.188 433.776 103.348C434.074 103.497 434.432 103.631 434.848 103.748C435.274 103.855 435.701 103.983 436.128 104.132C436.554 104.281 436.912 104.537 437.2 104.9C437.498 105.252 437.648 105.7 437.648 106.244C437.648 107.012 437.349 107.615 436.752 108.052C436.165 108.489 435.424 108.708 434.528 108.708C433.738 108.708 433.061 108.543 432.496 108.212C431.93 107.881 431.52 107.423 431.264 106.836L432.752 105.972C433.029 106.74 433.621 107.124 434.528 107.124C435.434 107.124 435.888 106.825 435.888 106.228C435.888 105.972 435.738 105.764 435.44 105.604C435.152 105.444 434.794 105.311 434.368 105.204C433.952 105.087 433.53 104.953 433.104 104.804C432.677 104.655 432.314 104.409 432.016 104.068C431.728 103.716 431.584 103.273 431.584 102.74C431.584 102.004 431.861 101.412 432.416 100.964C432.981 100.516 433.68 100.292 434.512 100.292C435.173 100.292 435.76 100.441 436.272 100.74C436.794 101.028 437.194 101.433 437.472 101.956L436.016 102.772C435.738 102.164 435.237 101.86 434.512 101.86C434.181 101.86 433.904 101.935 433.68 102.084C433.456 102.223 433.344 102.431 433.344 102.708Z" fill="#465364"/>
</svg>
