<svg width="299" height="93" viewBox="0 0 299 93" fill="none" xmlns="http://www.w3.org/2000/svg">
<path d="M6.464 15.208C4.768 15.208 3.36533 14.648 2.256 13.528C1.15733 12.408 0.608 11.032 0.608 9.4C0.608 7.768 1.15733 6.392 2.256 5.272C3.36533 4.152 4.768 3.592 6.464 3.592C7.488 3.592 8.42667 3.83733 9.28 4.328C10.144 4.81867 10.816 5.48 11.296 6.312L10 7.064C9.68 6.44533 9.2 5.95467 8.56 5.592C7.93067 5.21867 7.232 5.032 6.464 5.032C5.17333 5.032 4.11733 5.448 3.296 6.28C2.48533 7.112 2.08 8.152 2.08 9.4C2.08 10.6373 2.48533 11.672 3.296 12.504C4.11733 13.336 5.17333 13.752 6.464 13.752C7.232 13.752 7.93067 13.5707 8.56 13.208C9.2 12.8347 9.68 12.344 10 11.736L11.296 12.472C10.8267 13.304 10.16 13.9707 9.296 14.472C8.432 14.9627 7.488 15.208 6.464 15.208ZM18.8841 7H20.2761V15H18.8841V13.848C18.3188 14.7547 17.4548 15.208 16.2921 15.208C15.3535 15.208 14.6015 14.9147 14.0361 14.328C13.4708 13.7307 13.1881 12.9253 13.1881 11.912V7H14.5801V11.832C14.5801 12.4827 14.7561 12.9893 15.1081 13.352C15.4601 13.704 15.9455 13.88 16.5641 13.88C17.2575 13.88 17.8175 13.6667 18.2441 13.24C18.6708 12.8027 18.8841 12.136 18.8841 11.24V7ZM24.2674 8.344C24.726 7.352 25.558 6.856 26.7634 6.856V8.312C26.0807 8.28 25.494 8.46133 25.0034 8.856C24.5127 9.25067 24.2674 9.88533 24.2674 10.76V15H22.8754V7H24.2674V8.344ZM29.9974 8.344C30.456 7.352 31.288 6.856 32.4934 6.856V8.312C31.8107 8.28 31.224 8.46133 30.7334 8.856C30.2427 9.25067 29.9974 9.88533 29.9974 10.76V15H28.6054V7H29.9974V8.344ZM34.8739 11.64C35.0125 12.3547 35.3379 12.9093 35.8499 13.304C36.3725 13.6987 37.0125 13.896 37.7699 13.896C38.8259 13.896 39.5939 13.5067 40.0739 12.728L41.2579 13.4C40.4792 14.6053 39.3059 15.208 37.7379 15.208C36.4685 15.208 35.4339 14.8133 34.6339 14.024C33.8445 13.224 33.4499 12.216 33.4499 11C33.4499 9.79467 33.8392 8.792 34.6179 7.992C35.3965 7.192 36.4045 6.792 37.6419 6.792C38.8152 6.792 39.7699 7.208 40.5059 8.04C41.2525 8.86133 41.6259 9.85333 41.6259 11.016C41.6259 11.2187 41.6099 11.4267 41.5779 11.64H34.8739ZM37.6419 8.104C36.8952 8.104 36.2765 8.31733 35.7859 8.744C35.2952 9.16 34.9912 9.72 34.8739 10.424H40.2179C40.1005 9.66667 39.8019 9.09067 39.3219 8.696C38.8419 8.30133 38.2819 8.104 37.6419 8.104ZM47.69 6.792C48.6287 6.792 49.3807 7.09067 49.946 7.688C50.5113 8.27467 50.794 9.07467 50.794 10.088V15H49.402V10.168C49.402 9.51733 49.226 9.016 48.874 8.664C48.522 8.30133 48.0367 8.12 47.418 8.12C46.7247 8.12 46.1647 8.33867 45.738 8.776C45.3113 9.20267 45.098 9.864 45.098 10.76V15H43.706V7H45.098V8.152C45.6633 7.24533 46.5273 6.792 47.69 6.792ZM57.5693 8.344H55.4413V12.68C55.4413 13.0747 55.5159 13.3573 55.6653 13.528C55.8253 13.688 56.0653 13.7733 56.3853 13.784C56.7053 13.784 57.0999 13.7733 57.5693 13.752V15C56.3533 15.16 55.4626 15.064 54.8973 14.712C54.3319 14.3493 54.0493 13.672 54.0493 12.68V8.344H52.4653V7H54.0493V5.176L55.4413 4.76V7H57.5693V8.344ZM68.6401 6.792C69.7601 6.792 70.7148 7.20267 71.5041 8.024C72.2935 8.83467 72.6881 9.82667 72.6881 11C72.6881 12.1733 72.2935 13.1707 71.5041 13.992C70.7148 14.8027 69.7601 15.208 68.6401 15.208C67.3175 15.208 66.3095 14.68 65.6161 13.624V15H64.2241V3.8H65.6161V8.376C66.3095 7.32 67.3175 6.792 68.6401 6.792ZM68.4641 13.864C69.2641 13.864 69.9361 13.592 70.4801 13.048C71.0241 12.4933 71.2961 11.8107 71.2961 11C71.2961 10.1893 71.0241 9.512 70.4801 8.968C69.9361 8.41333 69.2641 8.136 68.4641 8.136C67.6535 8.136 66.9761 8.41333 66.4321 8.968C65.8881 9.512 65.6161 10.1893 65.6161 11C65.6161 11.8107 65.8881 12.4933 66.4321 13.048C66.9761 13.592 67.6535 13.864 68.4641 13.864ZM75.5331 5.544C75.2665 5.544 75.0425 5.45333 74.8611 5.272C74.6798 5.09067 74.5891 4.872 74.5891 4.616C74.5891 4.36 74.6798 4.14133 74.8611 3.96C75.0425 3.768 75.2665 3.672 75.5331 3.672C75.7891 3.672 76.0078 3.768 76.1891 3.96C76.3705 4.14133 76.4611 4.36 76.4611 4.616C76.4611 4.872 76.3705 5.09067 76.1891 5.272C76.0078 5.45333 75.7891 5.544 75.5331 5.544ZM74.8291 15V7H76.2211V15H74.8291ZM85.4488 3.8H86.8408V15H85.4488V13.624C84.7554 14.68 83.7474 15.208 82.4248 15.208C81.3048 15.208 80.3501 14.8027 79.5608 13.992C78.7714 13.1707 78.3768 12.1733 78.3768 11C78.3768 9.82667 78.7714 8.83467 79.5608 8.024C80.3501 7.20267 81.3048 6.792 82.4248 6.792C83.7474 6.792 84.7554 7.32 85.4488 8.376V3.8ZM82.6008 13.864C83.4114 13.864 84.0888 13.592 84.6328 13.048C85.1768 12.4933 85.4488 11.8107 85.4488 11C85.4488 10.1893 85.1768 9.512 84.6328 8.968C84.0888 8.41333 83.4114 8.136 82.6008 8.136C81.8008 8.136 81.1288 8.41333 80.5848 8.968C80.0408 9.512 79.7688 10.1893 79.7688 11C79.7688 11.8107 80.0408 12.4933 80.5848 13.048C81.1288 13.592 81.8008 13.864 82.6008 13.864Z" fill="#465364"/>
<path d="M10.512 48.264C12.064 49.192 12.84 50.544 12.84 52.32C12.84 53.872 12.296 55.096 11.208 55.992C10.136 56.888 8.672 57.336 6.816 57.336C4.944 57.336 3.472 56.888 2.4 55.992C1.328 55.096 0.792 53.872 0.792 52.32C0.792 50.544 1.56 49.192 3.096 48.264C1.928 47.416 1.344 46.256 1.344 44.784C1.344 43.232 1.864 42.024 2.904 41.16C3.96 40.296 5.264 39.864 6.816 39.864C8.368 39.864 9.664 40.296 10.704 41.16C11.744 42.024 12.264 43.232 12.264 44.784C12.264 46.272 11.68 47.432 10.512 48.264ZM8.376 43.512C7.976 43.16 7.456 42.984 6.816 42.984C6.176 42.984 5.656 43.16 5.256 43.512C4.856 43.864 4.656 44.344 4.656 44.952C4.656 45.56 4.856 46.048 5.256 46.416C5.656 46.768 6.176 46.944 6.816 46.944C7.456 46.944 7.976 46.768 8.376 46.416C8.776 46.048 8.976 45.56 8.976 44.952C8.976 44.344 8.776 43.864 8.376 43.512ZM4.824 53.616C5.336 54.016 6 54.216 6.816 54.216C7.632 54.216 8.288 54.016 8.784 53.616C9.296 53.2 9.552 52.624 9.552 51.888C9.552 51.168 9.296 50.608 8.784 50.208C8.288 49.792 7.632 49.584 6.816 49.584C6 49.584 5.336 49.792 4.824 50.208C4.328 50.608 4.08 51.168 4.08 51.888C4.08 52.624 4.328 53.2 4.824 53.616ZM19.4966 56.712C19.0966 57.112 18.6166 57.312 18.0566 57.312C17.4966 57.312 17.0166 57.112 16.6166 56.712C16.2166 56.312 16.0166 55.832 16.0166 55.272C16.0166 54.712 16.2166 54.232 16.6166 53.832C17.0166 53.432 17.4966 53.232 18.0566 53.232C18.6166 53.232 19.0966 53.432 19.4966 53.832C19.8966 54.232 20.0966 54.712 20.0966 55.272C20.0966 55.832 19.8966 56.312 19.4966 56.712ZM30.9345 47.016C32.0705 47.352 32.9905 47.944 33.6945 48.792C34.4145 49.624 34.7745 50.632 34.7745 51.816C34.7745 53.544 34.1905 54.896 33.0225 55.872C31.8705 56.848 30.4545 57.336 28.7745 57.336C27.4625 57.336 26.2865 57.04 25.2465 56.448C24.2225 55.84 23.4785 54.952 23.0145 53.784L25.8465 52.152C26.2625 53.448 27.2385 54.096 28.7745 54.096C29.6225 54.096 30.2785 53.896 30.7425 53.496C31.2225 53.08 31.4625 52.52 31.4625 51.816C31.4625 51.128 31.2225 50.576 30.7425 50.16C30.2785 49.744 29.6225 49.536 28.7745 49.536H28.0545L26.7825 47.616L30.0945 43.296H23.5185V40.2H34.0785V42.936L30.9345 47.016ZM47.2526 48.264C48.8046 49.192 49.5806 50.544 49.5806 52.32C49.5806 53.872 49.0366 55.096 47.9486 55.992C46.8766 56.888 45.4126 57.336 43.5566 57.336C41.6846 57.336 40.2126 56.888 39.1406 55.992C38.0686 55.096 37.5326 53.872 37.5326 52.32C37.5326 50.544 38.3006 49.192 39.8366 48.264C38.6686 47.416 38.0846 46.256 38.0846 44.784C38.0846 43.232 38.6046 42.024 39.6446 41.16C40.7006 40.296 42.0046 39.864 43.5566 39.864C45.1086 39.864 46.4046 40.296 47.4446 41.16C48.4846 42.024 49.0046 43.232 49.0046 44.784C49.0046 46.272 48.4206 47.432 47.2526 48.264ZM45.1166 43.512C44.7166 43.16 44.1966 42.984 43.5566 42.984C42.9166 42.984 42.3966 43.16 41.9966 43.512C41.5966 43.864 41.3966 44.344 41.3966 44.952C41.3966 45.56 41.5966 46.048 41.9966 46.416C42.3966 46.768 42.9166 46.944 43.5566 46.944C44.1966 46.944 44.7166 46.768 45.1166 46.416C45.5166 46.048 45.7166 45.56 45.7166 44.952C45.7166 44.344 45.5166 43.864 45.1166 43.512ZM41.5646 53.616C42.0766 54.016 42.7406 54.216 43.5566 54.216C44.3726 54.216 45.0286 54.016 45.5246 53.616C46.0366 53.2 46.2926 52.624 46.2926 51.888C46.2926 51.168 46.0366 50.608 45.5246 50.208C45.0286 49.792 44.3726 49.584 43.5566 49.584C42.7406 49.584 42.0766 49.792 41.5646 50.208C41.0686 50.608 40.8206 51.168 40.8206 51.888C40.8206 52.624 41.0686 53.2 41.5646 53.616ZM63.6533 53.832H70.7333V57H60.3413V40.2H70.6133V43.368H63.6533V46.944H70.0133V50.064H63.6533V53.832ZM85.3798 40.2V43.368H80.8438V57H77.5318V43.368H73.0198V40.2H85.3798ZM97.9808 40.2H101.269V57H97.9808V50.04H91.7408V57H88.4288V40.2H91.7408V46.872H97.9808V40.2Z" fill="#293341"/>
<path d="M0.7 81.372V79.944H6.72V81.372H0.7ZM0.7 84.242V82.814H6.72V84.242H0.7ZM19.0298 84.312C19.0298 85.1053 18.7732 85.754 18.2598 86.258C17.7558 86.7527 17.0932 87.0513 16.2718 87.154V88.4H15.3618V87.168C14.5872 87.1213 13.9245 86.9113 13.3738 86.538C12.8232 86.1647 12.4265 85.656 12.1838 85.012L13.5698 84.214C13.8965 85.0353 14.4938 85.4927 15.3618 85.586V82.674C14.9418 82.5153 14.6012 82.3753 14.3398 82.254C14.0785 82.1233 13.7985 81.946 13.4998 81.722C13.2105 81.498 12.9912 81.2273 12.8418 80.91C12.7018 80.5833 12.6318 80.2053 12.6318 79.776C12.6318 78.992 12.8932 78.3573 13.4158 77.872C13.9385 77.3867 14.5872 77.1067 15.3618 77.032V75.8H16.2718V77.046C17.5225 77.214 18.3905 77.8533 18.8758 78.964L17.5178 79.748C17.2752 79.1413 16.8598 78.7727 16.2718 78.642V81.414C16.5705 81.526 16.7945 81.6147 16.9438 81.68C17.1025 81.7453 17.3078 81.8433 17.5598 81.974C17.8212 82.1047 18.0218 82.2353 18.1618 82.366C18.3018 82.4967 18.4465 82.6553 18.5958 82.842C18.7545 83.0287 18.8665 83.248 18.9318 83.5C18.9972 83.7427 19.0298 84.0133 19.0298 84.312ZM14.2418 79.776C14.2418 80.0653 14.3258 80.3033 14.4938 80.49C14.6712 80.6767 14.9605 80.8633 15.3618 81.05V78.614C15.0165 78.67 14.7412 78.8007 14.5358 79.006C14.3398 79.2113 14.2418 79.468 14.2418 79.776ZM16.2718 85.572C16.6452 85.4973 16.9298 85.348 17.1258 85.124C17.3218 84.9 17.4198 84.634 17.4198 84.326C17.4198 84.018 17.3265 83.7707 17.1398 83.584C16.9532 83.388 16.6638 83.2013 16.2718 83.024V85.572ZM20.3014 87V85.74L23.7174 82.254C24.5481 81.4233 24.9634 80.7047 24.9634 80.098C24.9634 79.622 24.8188 79.2533 24.5294 78.992C24.2494 78.7213 23.8901 78.586 23.4514 78.586C22.6301 78.586 22.0234 78.992 21.6314 79.804L20.2734 79.006C20.5814 78.3527 21.0154 77.858 21.5754 77.522C22.1354 77.186 22.7561 77.018 23.4374 77.018C24.2961 77.018 25.0334 77.2887 25.6494 77.83C26.2654 78.3713 26.5734 79.1087 26.5734 80.042C26.5734 81.0407 26.0181 82.1047 24.9074 83.234L22.6954 85.446H26.7554V87H20.3014ZM31.4109 80.896C32.3442 80.896 33.1329 81.176 33.7769 81.736C34.4209 82.2867 34.7429 83.052 34.7429 84.032C34.7429 85.012 34.4115 85.782 33.7489 86.342C33.0862 86.902 32.2742 87.182 31.3129 87.182C30.5382 87.182 29.8522 87.0047 29.2549 86.65C28.6575 86.286 28.2329 85.7633 27.9809 85.082L29.3669 84.284C29.6282 85.1707 30.2769 85.614 31.3129 85.614C31.8635 85.614 32.3022 85.474 32.6289 85.194C32.9649 84.9047 33.1329 84.5173 33.1329 84.032C33.1329 83.5467 32.9695 83.164 32.6429 82.884C32.3162 82.604 31.8822 82.464 31.3409 82.464H28.4849L28.8629 77.2H34.3229V78.712H30.3469L30.1789 80.896H31.4109ZM38.3183 85.32L37.3383 88.96H36.0783L36.6383 85.32H38.3183ZM39.6714 77.2H45.9014V78.6L42.4574 87H40.7634L44.1514 78.74H39.6714V77.2ZM46.9547 77.2H53.1847V78.6L49.7407 87H48.0467L51.4347 78.74H46.9547V77.2ZM57.0303 80.896C57.9636 80.896 58.7523 81.176 59.3963 81.736C60.0403 82.2867 60.3623 83.052 60.3623 84.032C60.3623 85.012 60.031 85.782 59.3683 86.342C58.7056 86.902 57.8936 87.182 56.9323 87.182C56.1576 87.182 55.4716 87.0047 54.8743 86.65C54.277 86.286 53.8523 85.7633 53.6003 85.082L54.9863 84.284C55.2476 85.1707 55.8963 85.614 56.9323 85.614C57.483 85.614 57.9216 85.474 58.2483 85.194C58.5843 84.9047 58.7523 84.5173 58.7523 84.032C58.7523 83.5467 58.589 83.164 58.2623 82.884C57.9356 82.604 57.5016 82.464 56.9603 82.464H54.1043L54.4823 77.2H59.9423V78.712H55.9663L55.7983 80.896H57.0303Z" fill="#465364"/>
<path d="M174.6 9.192C175.112 9.43733 175.517 9.78933 175.816 10.248C176.125 10.7067 176.28 11.2347 176.28 11.832C176.28 12.728 175.965 13.48 175.336 14.088C174.707 14.696 173.939 15 173.032 15H168.2V3.8H172.68C173.555 3.8 174.296 4.09333 174.904 4.68C175.512 5.26667 175.816 5.992 175.816 6.856C175.816 7.848 175.411 8.62667 174.6 9.192ZM172.68 5.192H169.688V8.616H172.68C173.149 8.616 173.544 8.45067 173.864 8.12C174.184 7.78933 174.344 7.384 174.344 6.904C174.344 6.43467 174.179 6.03467 173.848 5.704C173.528 5.36267 173.139 5.192 172.68 5.192ZM173.032 13.608C173.533 13.608 173.955 13.432 174.296 13.08C174.637 12.728 174.808 12.296 174.808 11.784C174.808 11.2827 174.632 10.856 174.28 10.504C173.939 10.152 173.523 9.976 173.032 9.976H169.688V13.608H173.032ZM179.084 5.544C178.817 5.544 178.593 5.45333 178.412 5.272C178.23 5.09067 178.14 4.872 178.14 4.616C178.14 4.36 178.23 4.14133 178.412 3.96C178.593 3.768 178.817 3.672 179.084 3.672C179.34 3.672 179.558 3.768 179.74 3.96C179.921 4.14133 180.012 4.36 180.012 4.616C180.012 4.872 179.921 5.09067 179.74 5.272C179.558 5.45333 179.34 5.544 179.084 5.544ZM178.38 15V7H179.772V15H178.38ZM188.999 3.8H190.391V15H188.999V13.624C188.306 14.68 187.298 15.208 185.975 15.208C184.855 15.208 183.901 14.8027 183.111 13.992C182.322 13.1707 181.927 12.1733 181.927 11C181.927 9.82667 182.322 8.83467 183.111 8.024C183.901 7.20267 184.855 6.792 185.975 6.792C187.298 6.792 188.306 7.32 188.999 8.376V3.8ZM186.151 13.864C186.962 13.864 187.639 13.592 188.183 13.048C188.727 12.4933 188.999 11.8107 188.999 11C188.999 10.1893 188.727 9.512 188.183 8.968C187.639 8.41333 186.962 8.136 186.151 8.136C185.351 8.136 184.679 8.41333 184.135 8.968C183.591 9.512 183.319 10.1893 183.319 11C183.319 11.8107 183.591 12.4933 184.135 13.048C184.679 13.592 185.351 13.864 186.151 13.864ZM198.436 11.64C198.575 12.3547 198.9 12.9093 199.412 13.304C199.935 13.6987 200.575 13.896 201.332 13.896C202.388 13.896 203.156 13.5067 203.636 12.728L204.82 13.4C204.042 14.6053 202.868 15.208 201.3 15.208C200.031 15.208 198.996 14.8133 198.196 14.024C197.407 13.224 197.012 12.216 197.012 11C197.012 9.79467 197.402 8.792 198.18 7.992C198.959 7.192 199.967 6.792 201.204 6.792C202.378 6.792 203.332 7.208 204.068 8.04C204.815 8.86133 205.188 9.85333 205.188 11.016C205.188 11.2187 205.172 11.4267 205.14 11.64H198.436ZM201.204 8.104C200.458 8.104 199.839 8.31733 199.348 8.744C198.858 9.16 198.554 9.72 198.436 10.424H203.78C203.663 9.66667 203.364 9.09067 202.884 8.696C202.404 8.30133 201.844 8.104 201.204 8.104ZM211.253 6.792C212.191 6.792 212.943 7.09067 213.509 7.688C214.074 8.27467 214.357 9.07467 214.357 10.088V15H212.965V10.168C212.965 9.51733 212.789 9.016 212.437 8.664C212.085 8.30133 211.599 8.12 210.981 8.12C210.287 8.12 209.727 8.33867 209.301 8.776C208.874 9.20267 208.661 9.864 208.661 10.76V15H207.269V7H208.661V8.152C209.226 7.24533 210.09 6.792 211.253 6.792ZM223.404 3.8H224.796V15H223.404V13.624C222.71 14.68 221.702 15.208 220.38 15.208C219.26 15.208 218.305 14.8027 217.516 13.992C216.726 13.1707 216.332 12.1733 216.332 11C216.332 9.82667 216.726 8.83467 217.516 8.024C218.305 7.20267 219.26 6.792 220.38 6.792C221.702 6.792 222.71 7.32 223.404 8.376V3.8ZM220.556 13.864C221.366 13.864 222.044 13.592 222.588 13.048C223.132 12.4933 223.404 11.8107 223.404 11C223.404 10.1893 223.132 9.512 222.588 8.968C222.044 8.41333 221.366 8.136 220.556 8.136C219.756 8.136 219.084 8.41333 218.54 8.968C217.996 9.512 217.724 10.1893 217.724 11C217.724 11.8107 217.996 12.4933 218.54 13.048C219.084 13.592 219.756 13.864 220.556 13.864ZM228.089 5.544C227.822 5.544 227.598 5.45333 227.417 5.272C227.235 5.09067 227.145 4.872 227.145 4.616C227.145 4.36 227.235 4.14133 227.417 3.96C227.598 3.768 227.822 3.672 228.089 3.672C228.345 3.672 228.563 3.768 228.745 3.96C228.926 4.14133 229.017 4.36 229.017 4.616C229.017 4.872 228.926 5.09067 228.745 5.272C228.563 5.45333 228.345 5.544 228.089 5.544ZM227.385 15V7H228.777V15H227.385ZM235.364 6.792C236.303 6.792 237.055 7.09067 237.62 7.688C238.186 8.27467 238.468 9.07467 238.468 10.088V15H237.076V10.168C237.076 9.51733 236.9 9.016 236.548 8.664C236.196 8.30133 235.711 8.12 235.092 8.12C234.399 8.12 233.839 8.33867 233.412 8.776C232.986 9.20267 232.772 9.864 232.772 10.76V15H231.38V7H232.772V8.152C233.338 7.24533 234.202 6.792 235.364 6.792ZM247.532 7H248.908V14.664C248.908 15.848 248.508 16.7653 247.708 17.416C246.908 18.0773 245.948 18.408 244.828 18.408C243.932 18.408 243.158 18.2373 242.508 17.896C241.857 17.5653 241.366 17.0853 241.036 16.456L242.252 15.768C242.689 16.664 243.558 17.112 244.86 17.112C245.692 17.112 246.342 16.8933 246.812 16.456C247.292 16.0187 247.532 15.4213 247.532 14.664V13.528C246.828 14.5947 245.825 15.128 244.524 15.128C243.382 15.128 242.417 14.7227 241.628 13.912C240.838 13.1013 240.444 12.1147 240.444 10.952C240.444 9.78933 240.838 8.808 241.628 8.008C242.417 7.19733 243.382 6.792 244.524 6.792C245.836 6.792 246.838 7.32 247.532 8.376V7ZM242.652 12.984C243.196 13.528 243.873 13.8 244.684 13.8C245.494 13.8 246.172 13.528 246.716 12.984C247.26 12.44 247.532 11.7627 247.532 10.952C247.532 10.152 247.26 9.48 246.716 8.936C246.172 8.392 245.494 8.12 244.684 8.12C243.873 8.12 243.196 8.392 242.652 8.936C242.108 9.48 241.836 10.152 241.836 10.952C241.836 11.7627 242.108 12.44 242.652 12.984ZM256.681 5.544C256.414 5.544 256.19 5.45333 256.009 5.272C255.827 5.09067 255.737 4.872 255.737 4.616C255.737 4.36 255.827 4.14133 256.009 3.96C256.19 3.768 256.414 3.672 256.681 3.672C256.937 3.672 257.155 3.768 257.337 3.96C257.518 4.14133 257.609 4.36 257.609 4.616C257.609 4.872 257.518 5.09067 257.337 5.272C257.155 5.45333 256.937 5.544 256.681 5.544ZM255.977 15V7H257.369V15H255.977ZM263.956 6.792C264.895 6.792 265.647 7.09067 266.212 7.688C266.778 8.27467 267.06 9.07467 267.06 10.088V15H265.668V10.168C265.668 9.51733 265.492 9.016 265.14 8.664C264.788 8.30133 264.303 8.12 263.684 8.12C262.991 8.12 262.431 8.33867 262.004 8.776C261.578 9.20267 261.364 9.864 261.364 10.76V15H259.972V7H261.364V8.152C261.93 7.24533 262.794 6.792 263.956 6.792Z" fill="#465364"/>
<path d="M173.84 45.648C175.584 45.696 177 46.264 178.088 47.352C179.176 48.424 179.72 49.8 179.72 51.48C179.72 53.192 179.152 54.6 178.016 55.704C176.88 56.792 175.416 57.336 173.624 57.336C171.832 57.336 170.368 56.792 169.232 55.704C168.112 54.616 167.552 53.208 167.552 51.48C167.552 50.2 167.88 49.072 168.536 48.096L173.768 40.2H177.56L173.84 45.648ZM171.632 53.472C172.16 53.968 172.824 54.216 173.624 54.216C174.424 54.216 175.088 53.968 175.616 53.472C176.16 52.976 176.432 52.312 176.432 51.48C176.432 50.664 176.16 50.008 175.616 49.512C175.088 49.016 174.424 48.768 173.624 48.768C172.824 48.768 172.16 49.016 171.632 49.512C171.104 49.992 170.84 50.648 170.84 51.48C170.84 52.312 171.104 52.976 171.632 53.472Z" fill="#FE7676"/>
<path d="M173.79 77.2H175.4V87H173.79V82.758H169.59V87H167.98V77.2H169.59V81.218H173.79V77.2ZM180.985 87.182C179.958 87.182 179.086 86.8273 178.367 86.118C177.648 85.4087 177.289 84.536 177.289 83.5C177.289 82.464 177.648 81.5913 178.367 80.882C179.086 80.1727 179.958 79.818 180.985 79.818C182.021 79.818 182.894 80.1727 183.603 80.882C184.322 81.5913 184.681 82.464 184.681 83.5C184.681 84.536 184.322 85.4087 183.603 86.118C182.894 86.8273 182.021 87.182 180.985 87.182ZM179.431 85.082C179.851 85.502 180.369 85.712 180.985 85.712C181.601 85.712 182.119 85.502 182.539 85.082C182.959 84.662 183.169 84.1347 183.169 83.5C183.169 82.8653 182.959 82.338 182.539 81.918C182.119 81.498 181.601 81.288 180.985 81.288C180.369 81.288 179.851 81.498 179.431 81.918C179.011 82.338 178.801 82.8653 178.801 83.5C178.801 84.1347 179.011 84.662 179.431 85.082ZM191.186 80H192.698V87H191.186V86.104C190.729 86.8227 190.005 87.182 189.016 87.182C188.213 87.182 187.565 86.9253 187.07 86.412C186.575 85.8987 186.328 85.194 186.328 84.298V80H187.84V84.144C187.84 84.6667 187.98 85.068 188.26 85.348C188.54 85.628 188.923 85.768 189.408 85.768C189.94 85.768 190.369 85.6047 190.696 85.278C191.023 84.942 191.186 84.4333 191.186 83.752V80ZM196.398 81.176C196.781 80.308 197.499 79.874 198.554 79.874V81.512C197.975 81.4747 197.471 81.6147 197.042 81.932C196.613 82.24 196.398 82.7533 196.398 83.472V87H194.886V80H196.398V81.176ZM201.203 81.932C201.203 82.1653 201.329 82.352 201.581 82.492C201.843 82.6227 202.155 82.7393 202.519 82.842C202.893 82.9353 203.266 83.0473 203.639 83.178C204.013 83.3087 204.325 83.5327 204.577 83.85C204.839 84.158 204.969 84.55 204.969 85.026C204.969 85.698 204.708 86.2253 204.185 86.608C203.672 86.9907 203.023 87.182 202.239 87.182C201.549 87.182 200.956 87.0373 200.461 86.748C199.967 86.4587 199.607 86.0573 199.383 85.544L200.685 84.788C200.928 85.46 201.446 85.796 202.239 85.796C203.033 85.796 203.429 85.5347 203.429 85.012C203.429 84.788 203.299 84.606 203.037 84.466C202.785 84.326 202.473 84.2093 202.099 84.116C201.735 84.0133 201.367 83.8967 200.993 83.766C200.62 83.6353 200.303 83.4207 200.041 83.122C199.789 82.814 199.663 82.4267 199.663 81.96C199.663 81.316 199.906 80.798 200.391 80.406C200.886 80.014 201.497 79.818 202.225 79.818C202.804 79.818 203.317 79.9487 203.765 80.21C204.223 80.462 204.573 80.8167 204.815 81.274L203.541 81.988C203.299 81.456 202.86 81.19 202.225 81.19C201.936 81.19 201.693 81.2553 201.497 81.386C201.301 81.5073 201.203 81.6893 201.203 81.932Z" fill="#465364"/>
<path d="M225.68 40.2H228.56V57H225.248V43.704L222.08 44.592L221.264 41.76L225.68 40.2ZM238.201 46.32C239.817 46.32 241.177 46.808 242.281 47.784C243.385 48.744 243.937 50.088 243.937 51.816C243.937 53.544 243.353 54.896 242.185 55.872C241.033 56.848 239.617 57.336 237.937 57.336C236.577 57.336 235.377 57.032 234.337 56.424C233.297 55.816 232.545 54.92 232.081 53.736L234.913 52.08C235.329 53.424 236.337 54.096 237.937 54.096C238.785 54.096 239.441 53.896 239.905 53.496C240.385 53.08 240.625 52.52 240.625 51.816C240.625 51.128 240.393 50.576 239.929 50.16C239.465 49.744 238.833 49.536 238.033 49.536H232.945L233.617 40.2H243.145V43.296H236.689L236.473 46.32H238.201Z" fill="#FE7676"/>
<path d="M231.36 77.2V87H229.75V80.014L226.768 84.942H226.572L223.59 80V87H221.98V77.2H223.716L226.67 82.1L229.638 77.2H231.36ZM235.064 78.67C234.877 78.8567 234.653 78.95 234.392 78.95C234.131 78.95 233.902 78.8567 233.706 78.67C233.519 78.474 233.426 78.2453 233.426 77.984C233.426 77.7227 233.519 77.4987 233.706 77.312C233.893 77.116 234.121 77.018 234.392 77.018C234.663 77.018 234.891 77.116 235.078 77.312C235.265 77.4987 235.358 77.7227 235.358 77.984C235.358 78.2453 235.26 78.474 235.064 78.67ZM233.636 87V80H235.148V87H233.636ZM241.006 79.818C241.808 79.818 242.457 80.0747 242.952 80.588C243.446 81.1013 243.694 81.806 243.694 82.702V87H242.182V82.856C242.182 82.3333 242.042 81.932 241.762 81.652C241.482 81.372 241.099 81.232 240.614 81.232C240.082 81.232 239.652 81.4 239.326 81.736C238.999 82.0627 238.836 82.5667 238.836 83.248V87H237.324V80H238.836V80.896C239.293 80.1773 240.016 79.818 241.006 79.818ZM247.1 81.932C247.1 82.1653 247.226 82.352 247.478 82.492C247.739 82.6227 248.052 82.7393 248.416 82.842C248.789 82.9353 249.162 83.0473 249.536 83.178C249.909 83.3087 250.222 83.5327 250.474 83.85C250.735 84.158 250.866 84.55 250.866 85.026C250.866 85.698 250.604 86.2253 250.082 86.608C249.568 86.9907 248.92 87.182 248.136 87.182C247.445 87.182 246.852 87.0373 246.358 86.748C245.863 86.4587 245.504 86.0573 245.28 85.544L246.582 84.788C246.824 85.46 247.342 85.796 248.136 85.796C248.929 85.796 249.326 85.5347 249.326 85.012C249.326 84.788 249.195 84.606 248.934 84.466C248.682 84.326 248.369 84.2093 247.996 84.116C247.632 84.0133 247.263 83.8967 246.89 83.766C246.516 83.6353 246.199 83.4207 245.938 83.122C245.686 82.814 245.56 82.4267 245.56 81.96C245.56 81.316 245.802 80.798 246.288 80.406C246.782 80.014 247.394 79.818 248.122 79.818C248.7 79.818 249.214 79.9487 249.662 80.21C250.119 80.462 250.469 80.8167 250.712 81.274L249.438 81.988C249.195 81.456 248.756 81.19 248.122 81.19C247.832 81.19 247.59 81.2553 247.394 81.386C247.198 81.5073 247.1 81.6893 247.1 81.932Z" fill="#465364"/>
<path d="M267.648 57V54.528L273.384 48.624C274.664 47.28 275.304 46.16 275.304 45.264C275.304 44.608 275.096 44.08 274.68 43.68C274.28 43.28 273.76 43.08 273.12 43.08C271.856 43.08 270.92 43.736 270.312 45.048L267.528 43.416C268.056 42.264 268.816 41.384 269.808 40.776C270.8 40.168 271.888 39.864 273.072 39.864C274.592 39.864 275.896 40.344 276.984 41.304C278.072 42.248 278.616 43.528 278.616 45.144C278.616 46.888 277.696 48.68 275.856 50.52L272.568 53.808H278.88V57H267.648ZM293.483 45.696C293.483 46.992 293.147 48.128 292.475 49.104H292.499L287.267 57H283.474L287.219 51.528C285.475 51.496 284.051 50.944 282.946 49.872C281.858 48.784 281.314 47.392 281.314 45.696C281.314 43.984 281.874 42.584 282.994 41.496C284.13 40.408 285.595 39.864 287.387 39.864C289.195 39.864 290.659 40.408 291.779 41.496C292.915 42.568 293.483 43.968 293.483 45.696ZM284.603 45.696C284.603 46.528 284.867 47.192 285.394 47.688C285.939 48.184 286.603 48.432 287.387 48.432C288.203 48.432 288.875 48.184 289.403 47.688C289.931 47.192 290.194 46.528 290.194 45.696C290.194 44.864 289.931 44.208 289.403 43.728C288.875 43.232 288.203 42.984 287.387 42.984C286.603 42.984 285.939 43.232 285.394 43.728C284.867 44.224 284.603 44.88 284.603 45.696Z" fill="#FE7676"/>
<path d="M271.242 87.182C270.299 87.182 269.497 86.9673 268.834 86.538C268.181 86.1087 267.723 85.5207 267.462 84.774L268.848 83.962C269.24 85.0633 270.052 85.614 271.284 85.614C271.891 85.614 272.343 85.4973 272.642 85.264C272.95 85.0213 273.104 84.7087 273.104 84.326C273.104 83.9247 272.941 83.6213 272.614 83.416C272.287 83.2013 271.709 82.968 270.878 82.716C270.411 82.576 270.033 82.4453 269.744 82.324C269.455 82.2027 269.147 82.0347 268.82 81.82C268.503 81.596 268.265 81.3207 268.106 80.994C267.947 80.6673 267.868 80.2847 267.868 79.846C267.868 78.978 268.176 78.292 268.792 77.788C269.408 77.2747 270.15 77.018 271.018 77.018C271.802 77.018 272.488 77.2093 273.076 77.592C273.664 77.9747 274.117 78.502 274.434 79.174L273.076 79.958C272.665 79.0433 271.979 78.586 271.018 78.586C270.551 78.586 270.178 78.698 269.898 78.922C269.618 79.1367 269.478 79.4307 269.478 79.804C269.478 80.168 269.618 80.4573 269.898 80.672C270.187 80.8773 270.705 81.0967 271.452 81.33C271.825 81.4513 272.096 81.5447 272.264 81.61C272.441 81.666 272.684 81.7593 272.992 81.89C273.309 82.0207 273.547 82.1513 273.706 82.282C273.865 82.4127 274.033 82.576 274.21 82.772C274.397 82.968 274.527 83.192 274.602 83.444C274.677 83.696 274.714 83.9807 274.714 84.298C274.714 85.1847 274.392 85.8893 273.748 86.412C273.113 86.9253 272.278 87.182 271.242 87.182ZM277.805 84.144C277.917 84.676 278.173 85.0867 278.575 85.376C278.976 85.656 279.466 85.796 280.045 85.796C280.847 85.796 281.449 85.5067 281.851 84.928L283.097 85.656C282.406 86.6733 281.384 87.182 280.031 87.182C278.892 87.182 277.973 86.8367 277.273 86.146C276.573 85.446 276.223 84.564 276.223 83.5C276.223 82.4547 276.568 81.582 277.259 80.882C277.949 80.1727 278.836 79.818 279.919 79.818C280.945 79.818 281.785 80.1773 282.439 80.896C283.101 81.6147 283.433 82.4873 283.433 83.514C283.433 83.6727 283.414 83.8827 283.377 84.144H277.805ZM277.791 82.912H281.907C281.804 82.3427 281.566 81.9133 281.193 81.624C280.829 81.3347 280.399 81.19 279.905 81.19C279.345 81.19 278.878 81.344 278.505 81.652C278.131 81.96 277.893 82.38 277.791 82.912ZM288.446 87.182C287.391 87.182 286.509 86.8273 285.8 86.118C285.1 85.4087 284.75 84.536 284.75 83.5C284.75 82.4547 285.1 81.582 285.8 80.882C286.509 80.1727 287.391 79.818 288.446 79.818C289.127 79.818 289.748 79.9813 290.308 80.308C290.868 80.6347 291.288 81.0733 291.568 81.624L290.266 82.38C290.107 82.044 289.865 81.7827 289.538 81.596C289.221 81.4 288.852 81.302 288.432 81.302C287.816 81.302 287.298 81.512 286.878 81.932C286.467 82.352 286.262 82.8747 286.262 83.5C286.262 84.1253 286.467 84.648 286.878 85.068C287.298 85.488 287.816 85.698 288.432 85.698C288.843 85.698 289.211 85.6 289.538 85.404C289.874 85.208 290.126 84.9467 290.294 84.62L291.596 85.362C291.297 85.922 290.868 86.3653 290.308 86.692C289.748 87.0187 289.127 87.182 288.446 87.182ZM294.426 81.932C294.426 82.1653 294.552 82.352 294.804 82.492C295.065 82.6227 295.378 82.7393 295.742 82.842C296.115 82.9353 296.488 83.0473 296.862 83.178C297.235 83.3087 297.548 83.5327 297.8 83.85C298.061 84.158 298.192 84.55 298.192 85.026C298.192 85.698 297.93 86.2253 297.408 86.608C296.894 86.9907 296.246 87.182 295.462 87.182C294.771 87.182 294.178 87.0373 293.684 86.748C293.189 86.4587 292.83 86.0573 292.606 85.544L293.908 84.788C294.15 85.46 294.668 85.796 295.462 85.796C296.255 85.796 296.652 85.5347 296.652 85.012C296.652 84.788 296.521 84.606 296.26 84.466C296.008 84.326 295.695 84.2093 295.322 84.116C294.958 84.0133 294.589 83.8967 294.216 83.766C293.842 83.6353 293.525 83.4207 293.264 83.122C293.012 82.814 292.886 82.4267 292.886 81.96C292.886 81.316 293.128 80.798 293.614 80.406C294.108 80.014 294.72 79.818 295.448 79.818C296.026 79.818 296.54 79.9487 296.988 80.21C297.445 80.462 297.795 80.8167 298.038 81.274L296.764 81.988C296.521 81.456 296.082 81.19 295.448 81.19C295.158 81.19 294.916 81.2553 294.72 81.386C294.524 81.5073 294.426 81.6893 294.426 81.932Z" fill="#465364"/>
<path d="M135 1L135 92" stroke="#F1F4F5" stroke-linecap="round"/>
</svg>
