<svg width="231" height="48" viewBox="0 0 231 48" fill="none" xmlns="http://www.w3.org/2000/svg">
<rect y="0.5" width="231" height="47" rx="23.5" fill="#1A79E8"/>
<path d="M35.656 27.682C34.172 27.682 32.9447 27.192 31.974 26.212C31.0127 25.232 30.532 24.028 30.532 22.6C30.532 21.172 31.0127 19.968 31.974 18.988C32.9447 18.008 34.172 17.518 35.656 17.518C36.552 17.518 37.3733 17.7327 38.12 18.162C38.876 18.5913 39.464 19.17 39.884 19.898L38.75 20.556C38.47 20.0147 38.05 19.5853 37.49 19.268C36.9393 18.9413 36.328 18.778 35.656 18.778C34.5267 18.778 33.6027 19.142 32.884 19.87C32.1747 20.598 31.82 21.508 31.82 22.6C31.82 23.6827 32.1747 24.588 32.884 25.316C33.6027 26.044 34.5267 26.408 35.656 26.408C36.328 26.408 36.9393 26.2493 37.49 25.932C38.05 25.6053 38.47 25.176 38.75 24.644L39.884 25.288C39.4733 26.016 38.89 26.5993 38.134 27.038C37.378 27.4673 36.552 27.682 35.656 27.682ZM47.5333 26.618C46.8146 27.3273 45.9419 27.682 44.9153 27.682C43.8886 27.682 43.0159 27.3273 42.2973 26.618C41.5879 25.9087 41.2333 25.036 41.2333 24C41.2333 22.964 41.5879 22.0913 42.2973 21.382C43.0159 20.6727 43.8886 20.318 44.9153 20.318C45.9419 20.318 46.8146 20.6727 47.5333 21.382C48.2519 22.0913 48.6113 22.964 48.6113 24C48.6113 25.036 48.2519 25.9087 47.5333 26.618ZM44.9153 26.492C45.6153 26.492 46.2033 26.254 46.6793 25.778C47.1553 25.302 47.3933 24.7093 47.3933 24C47.3933 23.2907 47.1553 22.698 46.6793 22.222C46.2033 21.746 45.6153 21.508 44.9153 21.508C44.2246 21.508 43.6413 21.746 43.1653 22.222C42.6893 22.698 42.4513 23.2907 42.4513 24C42.4513 24.7093 42.6893 25.302 43.1653 25.778C43.6413 26.254 44.2246 26.492 44.9153 26.492ZM53.9531 20.318C54.7745 20.318 55.4325 20.5793 55.9271 21.102C56.4218 21.6153 56.6691 22.3153 56.6691 23.202V27.5H55.4511V23.272C55.4511 22.7027 55.2971 22.264 54.9891 21.956C54.6811 21.6387 54.2565 21.48 53.7151 21.48C53.1085 21.48 52.6185 21.6713 52.2451 22.054C51.8718 22.4273 51.6851 23.006 51.6851 23.79V27.5H50.4671V20.5H51.6851V21.508C52.1798 20.7147 52.9358 20.318 53.9531 20.318ZM62.2755 20.318C63.0968 20.318 63.7548 20.5793 64.2495 21.102C64.7441 21.6153 64.9915 22.3153 64.9915 23.202V27.5H63.7735V23.272C63.7735 22.7027 63.6195 22.264 63.3115 21.956C63.0035 21.6387 62.5788 21.48 62.0375 21.48C61.4308 21.48 60.9408 21.6713 60.5675 22.054C60.1941 22.4273 60.0075 23.006 60.0075 23.79V27.5H58.7895V20.5H60.0075V21.508C60.5021 20.7147 61.2581 20.318 62.2755 20.318ZM67.9658 24.56C68.0871 25.1853 68.3718 25.6707 68.8198 26.016C69.2771 26.3613 69.8371 26.534 70.4998 26.534C71.4238 26.534 72.0958 26.1933 72.5158 25.512L73.5518 26.1C72.8705 27.1547 71.8438 27.682 70.4718 27.682C69.3611 27.682 68.4558 27.3367 67.7558 26.646C67.0651 25.946 66.7198 25.064 66.7198 24C66.7198 22.9453 67.0605 22.068 67.7418 21.368C68.4231 20.668 69.3051 20.318 70.3878 20.318C71.4145 20.318 72.2498 20.682 72.8938 21.41C73.5471 22.1287 73.8738 22.9967 73.8738 24.014C73.8738 24.1913 73.8598 24.3733 73.8318 24.56H67.9658ZM70.3878 21.466C69.7345 21.466 69.1931 21.6527 68.7638 22.026C68.3345 22.39 68.0685 22.88 67.9658 23.496H72.6418C72.5391 22.8333 72.2778 22.3293 71.8578 21.984C71.4378 21.6387 70.9478 21.466 70.3878 21.466ZM78.9702 27.682C77.9156 27.682 77.0382 27.332 76.3382 26.632C75.6382 25.9227 75.2882 25.0453 75.2882 24C75.2882 22.9547 75.6382 22.082 76.3382 21.382C77.0382 20.6727 77.9156 20.318 78.9702 20.318C79.6609 20.318 80.2816 20.486 80.8322 20.822C81.3829 21.1487 81.7936 21.592 82.0642 22.152L81.0422 22.74C80.8649 22.3667 80.5896 22.068 80.2162 21.844C79.8522 21.62 79.4369 21.508 78.9702 21.508C78.2702 21.508 77.6822 21.746 77.2062 22.222C76.7396 22.698 76.5062 23.2907 76.5062 24C76.5062 24.7 76.7396 25.288 77.2062 25.764C77.6822 26.24 78.2702 26.478 78.9702 26.478C79.4369 26.478 79.8569 26.3707 80.2302 26.156C80.6036 25.932 80.8882 25.6333 81.0842 25.26L82.1202 25.862C81.8216 26.4127 81.3922 26.856 80.8322 27.192C80.2722 27.5187 79.6516 27.682 78.9702 27.682ZM87.5508 21.676H85.6888V25.47C85.6888 25.8153 85.7542 26.0627 85.8848 26.212C86.0248 26.352 86.2348 26.4267 86.5148 26.436C86.7948 26.436 87.1402 26.4267 87.5508 26.408V27.5C86.4868 27.64 85.7075 27.556 85.2128 27.248C84.7182 26.9307 84.4708 26.338 84.4708 25.47V21.676H83.0848V20.5H84.4708V18.904L85.6888 18.54V20.5H87.5508V21.676ZM95.6138 27.5L92.7998 17.7H94.1718L96.4118 25.764L98.7918 17.7H100.108L102.488 25.764L104.728 17.7H106.1L103.286 27.5H101.774L99.4498 19.674L97.1258 27.5H95.6138ZM112.756 20.5H113.974V27.5H112.756V26.296C112.149 27.22 111.267 27.682 110.11 27.682C109.13 27.682 108.295 27.3273 107.604 26.618C106.913 25.8993 106.568 25.0267 106.568 24C106.568 22.9733 106.913 22.1053 107.604 21.396C108.295 20.6773 109.13 20.318 110.11 20.318C111.267 20.318 112.149 20.78 112.756 21.704V20.5ZM110.264 26.506C110.973 26.506 111.566 26.268 112.042 25.792C112.518 25.3067 112.756 24.7093 112.756 24C112.756 23.2907 112.518 22.698 112.042 22.222C111.566 21.7367 110.973 21.494 110.264 21.494C109.564 21.494 108.976 21.7367 108.5 22.222C108.024 22.698 107.786 23.2907 107.786 24C107.786 24.7093 108.024 25.3067 108.5 25.792C108.976 26.268 109.564 26.506 110.264 26.506ZM116.239 27.5V17.28H117.457V27.5H116.239ZM119.735 27.5V17.28H120.953V27.5H119.735ZM124.086 24.56C124.207 25.1853 124.492 25.6707 124.94 26.016C125.397 26.3613 125.957 26.534 126.62 26.534C127.544 26.534 128.216 26.1933 128.636 25.512L129.672 26.1C128.99 27.1547 127.964 27.682 126.592 27.682C125.481 27.682 124.576 27.3367 123.876 26.646C123.185 25.946 122.84 25.064 122.84 24C122.84 22.9453 123.18 22.068 123.862 21.368C124.543 20.668 125.425 20.318 126.508 20.318C127.534 20.318 128.37 20.682 129.014 21.41C129.667 22.1287 129.994 22.9967 129.994 24.014C129.994 24.1913 129.98 24.3733 129.952 24.56H124.086ZM126.508 21.466C125.854 21.466 125.313 21.6527 124.884 22.026C124.454 22.39 124.188 22.88 124.086 23.496H128.762C128.659 22.8333 128.398 22.3293 127.978 21.984C127.558 21.6387 127.068 21.466 126.508 21.466ZM135.417 21.676H133.555V25.47C133.555 25.8153 133.62 26.0627 133.751 26.212C133.891 26.352 134.101 26.4267 134.381 26.436C134.661 26.436 135.006 26.4267 135.417 26.408V27.5C134.353 27.64 133.573 27.556 133.079 27.248C132.584 26.9307 132.337 26.338 132.337 25.47V21.676H130.951V20.5H132.337V18.904L133.555 18.54V20.5H135.417V21.676ZM149.262 27.094L148.17 27.724L147.176 26.66C146.448 27.3413 145.514 27.682 144.376 27.682C143.396 27.682 142.602 27.43 141.996 26.926C141.389 26.4127 141.086 25.722 141.086 24.854C141.086 24.2567 141.235 23.7107 141.534 23.216C141.842 22.712 142.29 22.3153 142.878 22.026C142.458 21.494 142.248 20.9013 142.248 20.248C142.248 19.436 142.528 18.778 143.088 18.274C143.657 17.77 144.338 17.518 145.132 17.518C145.785 17.518 146.378 17.6953 146.91 18.05C147.442 18.4047 147.824 18.8947 148.058 19.52L146.966 20.15C146.826 19.7207 146.592 19.3847 146.266 19.142C145.948 18.8993 145.58 18.778 145.16 18.778C144.712 18.778 144.329 18.9133 144.012 19.184C143.704 19.4547 143.55 19.8047 143.55 20.234C143.55 20.542 143.62 20.822 143.76 21.074C143.909 21.3167 144.128 21.592 144.418 21.9L147.092 24.756C147.325 24.2707 147.493 23.678 147.596 22.978L148.716 23.622C148.585 24.3967 148.333 25.092 147.96 25.708L149.262 27.094ZM144.404 26.45C145.178 26.45 145.822 26.2213 146.336 25.764L143.69 22.922C143.242 23.1087 142.91 23.37 142.696 23.706C142.49 24.042 142.388 24.3967 142.388 24.77C142.388 25.2927 142.565 25.7033 142.92 26.002C143.274 26.3007 143.769 26.45 144.404 26.45ZM159.581 27.682C158.097 27.682 156.87 27.192 155.899 26.212C154.938 25.232 154.457 24.028 154.457 22.6C154.457 21.172 154.938 19.968 155.899 18.988C156.87 18.008 158.097 17.518 159.581 17.518C160.477 17.518 161.298 17.7327 162.045 18.162C162.801 18.5913 163.389 19.17 163.809 19.898L162.675 20.556C162.395 20.0147 161.975 19.5853 161.415 19.268C160.864 18.9413 160.253 18.778 159.581 18.778C158.452 18.778 157.528 19.142 156.809 19.87C156.1 20.598 155.745 21.508 155.745 22.6C155.745 23.6827 156.1 24.588 156.809 25.316C157.528 26.044 158.452 26.408 159.581 26.408C160.253 26.408 160.864 26.2493 161.415 25.932C161.975 25.6053 162.395 25.176 162.675 24.644L163.809 25.288C163.398 26.016 162.815 26.5993 162.059 27.038C161.303 27.4673 160.477 27.682 159.581 27.682ZM166.837 21.676C167.238 20.808 167.966 20.374 169.021 20.374V21.648C168.423 21.62 167.91 21.7787 167.481 22.124C167.051 22.4693 166.837 23.0247 166.837 23.79V27.5H165.619V20.5H166.837V21.676ZM171.104 24.56C171.225 25.1853 171.51 25.6707 171.958 26.016C172.415 26.3613 172.975 26.534 173.638 26.534C174.562 26.534 175.234 26.1933 175.654 25.512L176.69 26.1C176.008 27.1547 174.982 27.682 173.61 27.682C172.499 27.682 171.594 27.3367 170.894 26.646C170.203 25.946 169.858 25.064 169.858 24C169.858 22.9453 170.198 22.068 170.88 21.368C171.561 20.668 172.443 20.318 173.526 20.318C174.552 20.318 175.388 20.682 176.032 21.41C176.685 22.1287 177.012 22.9967 177.012 24.014C177.012 24.1913 176.998 24.3733 176.97 24.56H171.104ZM173.526 21.466C172.872 21.466 172.331 21.6527 171.902 22.026C171.472 22.39 171.206 22.88 171.104 23.496H175.78C175.677 22.8333 175.416 22.3293 174.996 21.984C174.576 21.6387 174.086 21.466 173.526 21.466ZM184.614 20.5H185.832V27.5H184.614V26.296C184.007 27.22 183.125 27.682 181.968 27.682C180.988 27.682 180.153 27.3273 179.462 26.618C178.771 25.8993 178.426 25.0267 178.426 24C178.426 22.9733 178.771 22.1053 179.462 21.396C180.153 20.6773 180.988 20.318 181.968 20.318C183.125 20.318 184.007 20.78 184.614 21.704V20.5ZM182.122 26.506C182.831 26.506 183.424 26.268 183.9 25.792C184.376 25.3067 184.614 24.7093 184.614 24C184.614 23.2907 184.376 22.698 183.9 22.222C183.424 21.7367 182.831 21.494 182.122 21.494C181.422 21.494 180.834 21.7367 180.358 22.222C179.882 22.698 179.644 23.2907 179.644 24C179.644 24.7093 179.882 25.3067 180.358 25.792C180.834 26.268 181.422 26.506 182.122 26.506ZM191.906 21.676H190.044V25.47C190.044 25.8153 190.109 26.0627 190.24 26.212C190.38 26.352 190.59 26.4267 190.87 26.436C191.15 26.436 191.495 26.4267 191.906 26.408V27.5C190.842 27.64 190.062 27.556 189.568 27.248C189.073 26.9307 188.826 26.338 188.826 25.47V21.676H187.44V20.5H188.826V18.904L190.044 18.54V20.5H191.906V21.676ZM194.266 24.56C194.387 25.1853 194.672 25.6707 195.12 26.016C195.577 26.3613 196.137 26.534 196.8 26.534C197.724 26.534 198.396 26.1933 198.816 25.512L199.852 26.1C199.171 27.1547 198.144 27.682 196.772 27.682C195.661 27.682 194.756 27.3367 194.056 26.646C193.365 25.946 193.02 25.064 193.02 24C193.02 22.9453 193.361 22.068 194.042 21.368C194.723 20.668 195.605 20.318 196.688 20.318C197.715 20.318 198.55 20.682 199.194 21.41C199.847 22.1287 200.174 22.9967 200.174 24.014C200.174 24.1913 200.16 24.3733 200.132 24.56H194.266ZM196.688 21.466C196.035 21.466 195.493 21.6527 195.064 22.026C194.635 22.39 194.369 22.88 194.266 23.496H198.942C198.839 22.8333 198.578 22.3293 198.158 21.984C197.738 21.6387 197.248 21.466 196.688 21.466Z" fill="white"/>
</svg>
