<svg width="580" height="242" viewBox="0 0 580 242" fill="none" xmlns="http://www.w3.org/2000/svg">
<rect x="0.25" y="0.75" width="579.5" height="240.5" rx="4.75" fill="#FEFEFE" stroke="#1A79E8" stroke-width="0.5" stroke-dasharray="5 5"/>
<path d="M134.2 166.668C133.304 166.668 132.534 166.458 131.89 166.038C131.255 165.609 130.812 165.021 130.56 164.274L131.4 163.784C131.577 164.391 131.904 164.867 132.38 165.212C132.856 165.548 133.467 165.716 134.214 165.716C134.942 165.716 135.507 165.557 135.908 165.24C136.319 164.913 136.524 164.484 136.524 163.952C136.524 163.439 136.337 163.051 135.964 162.79C135.591 162.529 134.975 162.258 134.116 161.978C133.099 161.642 132.427 161.371 132.1 161.166C131.353 160.718 130.98 160.069 130.98 159.22C130.98 158.389 131.269 157.736 131.848 157.26C132.427 156.775 133.141 156.532 133.99 156.532C134.755 156.532 135.418 156.733 135.978 157.134C136.538 157.526 136.953 158.03 137.224 158.646L136.398 159.108C135.95 158.025 135.147 157.484 133.99 157.484C133.383 157.484 132.893 157.633 132.52 157.932C132.147 158.231 131.96 158.646 131.96 159.178C131.96 159.663 132.128 160.027 132.464 160.27C132.8 160.513 133.355 160.76 134.13 161.012C134.485 161.133 134.737 161.222 134.886 161.278C135.045 161.325 135.269 161.409 135.558 161.53C135.857 161.642 136.076 161.745 136.216 161.838C136.356 161.922 136.524 162.043 136.72 162.202C136.925 162.351 137.07 162.505 137.154 162.664C137.247 162.813 137.327 163 137.392 163.224C137.467 163.439 137.504 163.672 137.504 163.924C137.504 164.755 137.201 165.422 136.594 165.926C135.987 166.421 135.189 166.668 134.2 166.668ZM144.394 159.5H145.318V166.5H144.394V165.408C143.872 166.248 143.088 166.668 142.042 166.668C141.193 166.668 140.521 166.411 140.026 165.898C139.541 165.375 139.298 164.675 139.298 163.798V159.5H140.222V163.798C140.222 164.423 140.386 164.909 140.712 165.254C141.048 165.599 141.52 165.772 142.126 165.772C142.798 165.772 143.344 165.562 143.764 165.142C144.184 164.713 144.394 164.055 144.394 163.168V159.5ZM151.445 159.332C152.444 159.332 153.293 159.687 153.993 160.396C154.702 161.105 155.057 161.973 155.057 163C155.057 164.027 154.702 164.895 153.993 165.604C153.293 166.313 152.444 166.668 151.445 166.668C150.204 166.668 149.261 166.155 148.617 165.128V169.3H147.693V159.5H148.617V160.872C149.261 159.845 150.204 159.332 151.445 159.332ZM149.415 164.974C149.947 165.506 150.6 165.772 151.375 165.772C152.15 165.772 152.803 165.506 153.335 164.974C153.867 164.433 154.133 163.775 154.133 163C154.133 162.225 153.867 161.572 153.335 161.04C152.803 160.499 152.15 160.228 151.375 160.228C150.6 160.228 149.947 160.499 149.415 161.04C148.883 161.572 148.617 162.225 148.617 163C148.617 163.775 148.883 164.433 149.415 164.974ZM160.765 159.332C161.764 159.332 162.613 159.687 163.313 160.396C164.023 161.105 164.377 161.973 164.377 163C164.377 164.027 164.023 164.895 163.313 165.604C162.613 166.313 161.764 166.668 160.765 166.668C159.524 166.668 158.581 166.155 157.937 165.128V169.3H157.013V159.5H157.937V160.872C158.581 159.845 159.524 159.332 160.765 159.332ZM158.735 164.974C159.267 165.506 159.921 165.772 160.695 165.772C161.47 165.772 162.123 165.506 162.655 164.974C163.187 164.433 163.453 163.775 163.453 163C163.453 162.225 163.187 161.572 162.655 161.04C162.123 160.499 161.47 160.228 160.695 160.228C159.921 160.228 159.267 160.499 158.735 161.04C158.203 161.572 157.937 162.225 157.937 163C157.937 163.775 158.203 164.433 158.735 164.974ZM172.2 165.618C171.49 166.318 170.622 166.668 169.596 166.668C168.569 166.668 167.696 166.318 166.978 165.618C166.268 164.909 165.914 164.036 165.914 163C165.914 161.964 166.268 161.096 166.978 160.396C167.696 159.687 168.569 159.332 169.596 159.332C170.622 159.332 171.49 159.687 172.2 160.396C172.918 161.096 173.278 161.964 173.278 163C173.278 164.036 172.918 164.909 172.2 165.618ZM167.636 164.974C168.168 165.506 168.821 165.772 169.596 165.772C170.37 165.772 171.024 165.506 171.556 164.974C172.088 164.433 172.354 163.775 172.354 163C172.354 162.225 172.088 161.572 171.556 161.04C171.024 160.499 170.37 160.228 169.596 160.228C168.821 160.228 168.168 160.499 167.636 161.04C167.104 161.572 166.838 162.225 166.838 163C166.838 163.775 167.104 164.433 167.636 164.974ZM176.168 160.662C176.597 159.813 177.335 159.388 178.38 159.388V160.284C177.745 160.284 177.218 160.471 176.798 160.844C176.378 161.217 176.168 161.805 176.168 162.608V166.5H175.244V159.5H176.168V160.662ZM183.913 160.396H181.897V164.638C181.897 165.021 181.972 165.296 182.121 165.464C182.27 165.623 182.494 165.707 182.793 165.716C183.092 165.716 183.465 165.707 183.913 165.688V166.5C182.933 166.649 182.196 166.579 181.701 166.29C181.216 166.001 180.973 165.45 180.973 164.638V160.396H179.503V159.5H180.973V157.82L181.897 157.54V159.5H183.913V160.396ZM186.177 161.334C186.177 161.651 186.317 161.903 186.597 162.09C186.877 162.277 187.218 162.421 187.619 162.524C188.021 162.627 188.422 162.743 188.823 162.874C189.225 162.995 189.565 163.205 189.845 163.504C190.125 163.793 190.265 164.176 190.265 164.652C190.265 165.249 190.027 165.735 189.551 166.108C189.085 166.481 188.478 166.668 187.731 166.668C187.059 166.668 186.485 166.519 186.009 166.22C185.543 165.921 185.216 165.534 185.029 165.058L185.813 164.596C185.944 164.96 186.177 165.249 186.513 165.464C186.859 165.669 187.265 165.772 187.731 165.772C188.189 165.772 188.571 165.683 188.879 165.506C189.187 165.319 189.341 165.035 189.341 164.652C189.341 164.335 189.201 164.083 188.921 163.896C188.641 163.709 188.301 163.565 187.899 163.462C187.498 163.359 187.097 163.247 186.695 163.126C186.294 162.995 185.953 162.785 185.673 162.496C185.393 162.197 185.253 161.81 185.253 161.334C185.253 160.765 185.477 160.289 185.925 159.906C186.383 159.523 186.957 159.332 187.647 159.332C188.217 159.332 188.716 159.463 189.145 159.724C189.575 159.976 189.892 160.321 190.097 160.76L189.327 161.208C189.057 160.555 188.497 160.228 187.647 160.228C187.246 160.228 186.901 160.326 186.611 160.522C186.322 160.709 186.177 160.979 186.177 161.334ZM205.247 156.7V166.5H204.267V158.184L200.837 163.924H200.697L197.267 158.184V166.5H196.287V156.7H197.505L200.767 162.16L204.029 156.7H205.247ZM211.404 156.7C212.281 156.7 213.014 156.994 213.602 157.582C214.19 158.17 214.484 158.903 214.484 159.78C214.484 160.657 214.19 161.39 213.602 161.978C213.014 162.566 212.281 162.86 211.404 162.86H208.884V166.5H207.904V156.7H211.404ZM211.404 161.936C212.011 161.936 212.51 161.735 212.902 161.334C213.303 160.923 213.504 160.405 213.504 159.78C213.504 159.155 213.303 158.641 212.902 158.24C212.51 157.829 212.011 157.624 211.404 157.624H208.884V161.936H211.404ZM222.671 163.616V164.54H221.411V166.5H220.431V164.54H215.251V163.616L218.891 156.7H219.969L216.329 163.616H220.431V160.62H221.411V163.616H222.671ZM225.962 165.31L225.122 168.46H224.282L224.842 165.31H225.962ZM241.632 161.838V162.342C241.632 163.555 241.198 164.582 240.33 165.422C239.462 166.253 238.3 166.668 236.844 166.668C235.36 166.668 234.132 166.178 233.162 165.198C232.191 164.218 231.706 163.019 231.706 161.6C231.706 160.181 232.191 158.982 233.162 158.002C234.132 157.022 235.36 156.532 236.844 156.532C237.749 156.532 238.58 156.751 239.336 157.19C240.092 157.629 240.675 158.212 241.086 158.94L240.218 159.444C239.91 158.847 239.452 158.371 238.846 158.016C238.239 157.661 237.572 157.484 236.844 157.484C235.621 157.484 234.622 157.881 233.848 158.674C233.073 159.467 232.686 160.443 232.686 161.6C232.686 162.757 233.073 163.733 233.848 164.526C234.622 165.319 235.621 165.716 236.844 165.716C237.945 165.716 238.827 165.441 239.49 164.89C240.152 164.33 240.53 163.621 240.624 162.762H236.732V161.838H241.632ZM243.733 156.7H244.713V166.5H243.733V156.7ZM252.909 157.624H248.359V161.236H252.699V162.16H248.359V166.5H247.379V156.7H252.909V157.624ZM255.707 165.31L254.867 168.46H254.027L254.587 165.31H255.707ZM268.352 166.668C267.671 166.668 267.059 166.528 266.518 166.248C265.986 165.959 265.603 165.539 265.37 164.988L266.196 164.498C266.504 165.31 267.223 165.716 268.352 165.716C269.033 165.716 269.575 165.553 269.976 165.226C270.387 164.899 270.592 164.4 270.592 163.728V156.7H271.572V163.728C271.572 164.68 271.264 165.408 270.648 165.912C270.041 166.416 269.276 166.668 268.352 166.668ZM277.588 156.7C278.466 156.7 279.198 156.994 279.786 157.582C280.374 158.17 280.668 158.903 280.668 159.78C280.668 160.657 280.374 161.39 279.786 161.978C279.198 162.566 278.466 162.86 277.588 162.86H275.068V166.5H274.088V156.7H277.588ZM277.588 161.936C278.195 161.936 278.694 161.735 279.086 161.334C279.488 160.923 279.688 160.405 279.688 159.78C279.688 159.155 279.488 158.641 279.086 158.24C278.694 157.829 278.195 157.624 277.588 157.624H275.068V161.936H277.588ZM292.064 161.838V162.342C292.064 163.555 291.63 164.582 290.762 165.422C289.894 166.253 288.732 166.668 287.276 166.668C285.792 166.668 284.565 166.178 283.594 165.198C282.623 164.218 282.138 163.019 282.138 161.6C282.138 160.181 282.623 158.982 283.594 158.002C284.565 157.022 285.792 156.532 287.276 156.532C288.181 156.532 289.012 156.751 289.768 157.19C290.524 157.629 291.107 158.212 291.518 158.94L290.65 159.444C290.342 158.847 289.885 158.371 289.278 158.016C288.671 157.661 288.004 157.484 287.276 157.484C286.053 157.484 285.055 157.881 284.28 158.674C283.505 159.467 283.118 160.443 283.118 161.6C283.118 162.757 283.505 163.733 284.28 164.526C285.055 165.319 286.053 165.716 287.276 165.716C288.377 165.716 289.259 165.441 289.922 164.89C290.585 164.33 290.963 163.621 291.056 162.762H287.164V161.838H292.064ZM294.868 165.31L294.028 168.46H293.188L293.748 165.31H294.868ZM303.593 166.668C302.911 166.668 302.3 166.528 301.759 166.248C301.227 165.959 300.844 165.539 300.611 164.988L301.437 164.498C301.745 165.31 302.463 165.716 303.593 165.716C304.274 165.716 304.815 165.553 305.217 165.226C305.627 164.899 305.833 164.4 305.833 163.728V156.7H306.813V163.728C306.813 164.68 306.505 165.408 305.889 165.912C305.282 166.416 304.517 166.668 303.593 166.668ZM312.829 156.7C313.706 156.7 314.439 156.994 315.027 157.582C315.615 158.17 315.909 158.903 315.909 159.78C315.909 160.657 315.615 161.39 315.027 161.978C314.439 162.566 313.706 162.86 312.829 162.86H310.309V166.5H309.329V156.7H312.829ZM312.829 161.936C313.436 161.936 313.935 161.735 314.327 161.334C314.728 160.923 314.929 160.405 314.929 159.78C314.929 159.155 314.728 158.641 314.327 158.24C313.935 157.829 313.436 157.624 312.829 157.624H310.309V161.936H312.829ZM318.987 165.576H323.747V166.5H318.007V156.7H323.677V157.624H318.987V161.096H323.327V162.02H318.987V165.576ZM335.148 161.838V162.342C335.148 163.555 334.714 164.582 333.846 165.422C332.978 166.253 331.816 166.668 330.36 166.668C328.876 166.668 327.649 166.178 326.678 165.198C325.708 164.218 325.222 163.019 325.222 161.6C325.222 160.181 325.708 158.982 326.678 158.002C327.649 157.022 328.876 156.532 330.36 156.532C331.266 156.532 332.096 156.751 332.852 157.19C333.608 157.629 334.192 158.212 334.602 158.94L333.734 159.444C333.426 158.847 332.969 158.371 332.362 158.016C331.756 157.661 331.088 157.484 330.36 157.484C329.138 157.484 328.139 157.881 327.364 158.674C326.59 159.467 326.202 160.443 326.202 161.6C326.202 162.757 326.59 163.733 327.364 164.526C328.139 165.319 329.138 165.716 330.36 165.716C331.462 165.716 332.344 165.441 333.006 164.89C333.669 164.33 334.047 163.621 334.14 162.762H330.248V161.838H335.148ZM347.049 159.5H347.973V166.5H347.049V165.128C346.405 166.155 345.463 166.668 344.221 166.668C343.223 166.668 342.369 166.313 341.659 165.604C340.959 164.895 340.609 164.027 340.609 163C340.609 161.973 340.959 161.105 341.659 160.396C342.369 159.687 343.223 159.332 344.221 159.332C345.463 159.332 346.405 159.845 347.049 160.872V159.5ZM342.331 164.974C342.863 165.506 343.517 165.772 344.291 165.772C345.066 165.772 345.719 165.506 346.251 164.974C346.783 164.433 347.049 163.775 347.049 163C347.049 162.225 346.783 161.572 346.251 161.04C345.719 160.499 345.066 160.228 344.291 160.228C343.517 160.228 342.863 160.499 342.331 161.04C341.799 161.572 341.533 162.225 341.533 163C341.533 163.775 341.799 164.433 342.331 164.974ZM353.626 159.332C354.475 159.332 355.142 159.593 355.628 160.116C356.122 160.629 356.37 161.325 356.37 162.202V166.5H355.446V162.202C355.446 161.577 355.278 161.091 354.942 160.746C354.615 160.401 354.148 160.228 353.542 160.228C352.87 160.228 352.324 160.443 351.904 160.872C351.484 161.292 351.274 161.945 351.274 162.832V166.5H350.35V159.5H351.274V160.592C351.796 159.752 352.58 159.332 353.626 159.332ZM364.596 156.7H365.52V166.5H364.596V165.128C363.952 166.155 363.01 166.668 361.768 166.668C360.77 166.668 359.916 166.313 359.206 165.604C358.506 164.895 358.156 164.027 358.156 163C358.156 161.973 358.506 161.105 359.206 160.396C359.916 159.687 360.77 159.332 361.768 159.332C363.01 159.332 363.952 159.845 364.596 160.872V156.7ZM359.878 164.974C360.41 165.506 361.064 165.772 361.838 165.772C362.613 165.772 363.266 165.506 363.798 164.974C364.33 164.433 364.596 163.775 364.596 163C364.596 162.225 364.33 161.572 363.798 161.04C363.266 160.499 362.613 160.228 361.838 160.228C361.064 160.228 360.41 160.499 359.878 161.04C359.346 161.572 359.08 162.225 359.08 163C359.08 163.775 359.346 164.433 359.878 164.974ZM375.457 156.7C376.334 156.7 377.067 156.994 377.655 157.582C378.243 158.17 378.537 158.903 378.537 159.78C378.537 160.657 378.243 161.39 377.655 161.978C377.067 162.566 376.334 162.86 375.457 162.86H372.937V166.5H371.957V156.7H375.457ZM375.457 161.936C376.063 161.936 376.563 161.735 376.955 161.334C377.356 160.923 377.557 160.405 377.557 159.78C377.557 159.155 377.356 158.641 376.955 158.24C376.563 157.829 376.063 157.624 375.457 157.624H372.937V161.936H375.457ZM386.934 156.7H387.914V166.5H387.074L381.614 158.52V166.5H380.634V156.7H381.474L386.934 164.68V156.7ZM399.936 161.838V162.342C399.936 163.555 399.502 164.582 398.634 165.422C397.766 166.253 396.604 166.668 395.148 166.668C393.664 166.668 392.437 166.178 391.466 165.198C390.495 164.218 390.01 163.019 390.01 161.6C390.01 160.181 390.495 158.982 391.466 158.002C392.437 157.022 393.664 156.532 395.148 156.532C396.053 156.532 396.884 156.751 397.64 157.19C398.396 157.629 398.979 158.212 399.39 158.94L398.522 159.444C398.214 158.847 397.757 158.371 397.15 158.016C396.543 157.661 395.876 157.484 395.148 157.484C393.925 157.484 392.927 157.881 392.152 158.674C391.377 159.467 390.99 160.443 390.99 161.6C390.99 162.757 391.377 163.733 392.152 164.526C392.927 165.319 393.925 165.716 395.148 165.716C396.249 165.716 397.131 165.441 397.794 164.89C398.457 164.33 398.835 163.621 398.928 162.762H395.036V161.838H399.936ZM409.317 157.428C408.636 157.372 408.127 157.489 407.791 157.778C407.464 158.067 407.301 158.548 407.301 159.22V159.5H409.317V160.396H407.301V166.5H406.377V160.396H405.187V159.5H406.377V159.22C406.377 158.305 406.629 157.615 407.133 157.148C407.646 156.672 408.374 156.467 409.317 156.532V157.428ZM416.164 165.618C415.454 166.318 414.586 166.668 413.56 166.668C412.533 166.668 411.66 166.318 410.942 165.618C410.232 164.909 409.878 164.036 409.878 163C409.878 161.964 410.232 161.096 410.942 160.396C411.66 159.687 412.533 159.332 413.56 159.332C414.586 159.332 415.454 159.687 416.164 160.396C416.882 161.096 417.242 161.964 417.242 163C417.242 164.036 416.882 164.909 416.164 165.618ZM411.6 164.974C412.132 165.506 412.785 165.772 413.56 165.772C414.334 165.772 414.988 165.506 415.52 164.974C416.052 164.433 416.318 163.775 416.318 163C416.318 162.225 416.052 161.572 415.52 161.04C414.988 160.499 414.334 160.228 413.56 160.228C412.785 160.228 412.132 160.499 411.6 161.04C411.068 161.572 410.802 162.225 410.802 163C410.802 163.775 411.068 164.433 411.6 164.974ZM420.132 160.662C420.561 159.813 421.298 159.388 422.344 159.388V160.284C421.709 160.284 421.182 160.471 420.762 160.844C420.342 161.217 420.132 161.805 420.132 162.608V166.5H419.208V159.5H420.132V160.662ZM431.492 159.332C432.276 159.332 432.906 159.584 433.382 160.088C433.867 160.592 434.11 161.273 434.11 162.132V166.5H433.186V162.132C433.186 161.525 433.027 161.059 432.71 160.732C432.402 160.396 431.991 160.228 431.478 160.228C430.899 160.228 430.428 160.424 430.064 160.816C429.709 161.199 429.532 161.801 429.532 162.622V166.5H428.608V162.132C428.608 161.516 428.459 161.045 428.16 160.718C427.871 160.391 427.474 160.228 426.97 160.228C426.41 160.228 425.934 160.424 425.542 160.816C425.15 161.208 424.954 161.81 424.954 162.622V166.5H424.03V159.5H424.954V160.522C425.458 159.729 426.172 159.332 427.096 159.332C428.104 159.332 428.813 159.757 429.224 160.606C429.728 159.757 430.484 159.332 431.492 159.332ZM442.337 159.5H443.261V166.5H442.337V165.128C441.693 166.155 440.751 166.668 439.509 166.668C438.511 166.668 437.657 166.313 436.947 165.604C436.247 164.895 435.897 164.027 435.897 163C435.897 161.973 436.247 161.105 436.947 160.396C437.657 159.687 438.511 159.332 439.509 159.332C440.751 159.332 441.693 159.845 442.337 160.872V159.5ZM437.619 164.974C438.151 165.506 438.805 165.772 439.579 165.772C440.354 165.772 441.007 165.506 441.539 164.974C442.071 164.433 442.337 163.775 442.337 163C442.337 162.225 442.071 161.572 441.539 161.04C441.007 160.499 440.354 160.228 439.579 160.228C438.805 160.228 438.151 160.499 437.619 161.04C437.087 161.572 436.821 162.225 436.821 163C436.821 163.775 437.087 164.433 437.619 164.974ZM449.348 160.396H447.332V164.638C447.332 165.021 447.406 165.296 447.556 165.464C447.705 165.623 447.929 165.707 448.228 165.716C448.526 165.716 448.9 165.707 449.348 165.688V166.5C448.368 166.649 447.63 166.579 447.136 166.29C446.65 166.001 446.408 165.45 446.408 164.638V160.396H444.938V159.5H446.408V157.82L447.332 157.54V159.5H449.348V160.396Z" fill="#8390A2"/>
<path d="M297.667 99.1667L291 92.5L284.333 99.1667" stroke="black" stroke-width="2" stroke-linecap="round" stroke-linejoin="round"/>
<path d="M291 92.5V107.5" stroke="#1A79E8" stroke-width="3" stroke-linecap="round" stroke-linejoin="round"/>
<path d="M304.983 103.15C306.609 102.264 307.893 100.861 308.633 99.1644C309.373 97.4673 309.527 95.572 309.07 93.7778C308.614 91.9836 307.572 90.3925 306.111 89.2557C304.65 88.119 302.851 87.5012 301 87.5H298.9C298.395 85.5487 297.455 83.7372 296.15 82.2016C294.844 80.6661 293.208 79.4464 291.363 78.6343C289.519 77.8223 287.514 77.4389 285.5 77.5131C283.486 77.5873 281.515 78.1172 279.735 79.0628C277.955 80.0084 276.413 81.3452 275.224 82.9726C274.035 84.6001 273.231 86.4759 272.872 88.459C272.512 90.4421 272.607 92.4809 273.149 94.4221C273.69 96.3633 274.665 98.1564 276 99.6667" stroke="#1A79E8" stroke-width="3" stroke-linecap="round" stroke-linejoin="round"/>
<path d="M297.667 99.1667L291 92.5L284.333 99.1667" stroke="#1A79E8" stroke-width="3" stroke-linecap="round" stroke-linejoin="round"/>
<path d="M143.872 123.7C145.207 123.7 146.313 124.176 147.19 125.128C148.077 126.071 148.52 127.228 148.52 128.6C148.52 129.972 148.077 131.134 147.19 132.086C146.313 133.029 145.207 133.5 143.872 133.5H140.05V123.7H143.872ZM143.872 132.268C144.871 132.268 145.687 131.918 146.322 131.218C146.957 130.518 147.274 129.645 147.274 128.6C147.274 127.555 146.957 126.682 146.322 125.982C145.687 125.282 144.871 124.932 143.872 124.932H141.352V132.268H143.872ZM151.611 127.676C152.012 126.808 152.74 126.374 153.795 126.374V127.648C153.197 127.62 152.684 127.779 152.255 128.124C151.825 128.469 151.611 129.025 151.611 129.79V133.5H150.393V126.5H151.611V127.676ZM160.932 132.618C160.213 133.327 159.34 133.682 158.314 133.682C157.287 133.682 156.414 133.327 155.696 132.618C154.986 131.909 154.632 131.036 154.632 130C154.632 128.964 154.986 128.091 155.696 127.382C156.414 126.673 157.287 126.318 158.314 126.318C159.34 126.318 160.213 126.673 160.932 127.382C161.65 128.091 162.01 128.964 162.01 130C162.01 131.036 161.65 131.909 160.932 132.618ZM158.314 132.492C159.014 132.492 159.602 132.254 160.078 131.778C160.554 131.302 160.792 130.709 160.792 130C160.792 129.291 160.554 128.698 160.078 128.222C159.602 127.746 159.014 127.508 158.314 127.508C157.623 127.508 157.04 127.746 156.564 128.222C156.088 128.698 155.85 129.291 155.85 130C155.85 130.709 156.088 131.302 156.564 131.778C157.04 132.254 157.623 132.492 158.314 132.492ZM167.73 126.318C168.71 126.318 169.545 126.677 170.236 127.396C170.926 128.105 171.272 128.973 171.272 130C171.272 131.027 170.926 131.899 170.236 132.618C169.545 133.327 168.71 133.682 167.73 133.682C166.572 133.682 165.69 133.22 165.084 132.296V136.3H163.866V126.5H165.084V127.704C165.69 126.78 166.572 126.318 167.73 126.318ZM167.576 132.506C168.276 132.506 168.864 132.268 169.34 131.792C169.816 131.307 170.054 130.709 170.054 130C170.054 129.291 169.816 128.698 169.34 128.222C168.864 127.737 168.276 127.494 167.576 127.494C166.866 127.494 166.274 127.737 165.798 128.222C165.322 128.698 165.084 129.291 165.084 130C165.084 130.709 165.322 131.307 165.798 131.792C166.274 132.268 166.866 132.506 167.576 132.506ZM182.973 132.618C182.254 133.327 181.382 133.682 180.355 133.682C179.328 133.682 178.456 133.327 177.737 132.618C177.028 131.909 176.673 131.036 176.673 130C176.673 128.964 177.028 128.091 177.737 127.382C178.456 126.673 179.328 126.318 180.355 126.318C181.382 126.318 182.254 126.673 182.973 127.382C183.692 128.091 184.051 128.964 184.051 130C184.051 131.036 183.692 131.909 182.973 132.618ZM180.355 132.492C181.055 132.492 181.643 132.254 182.119 131.778C182.595 131.302 182.833 130.709 182.833 130C182.833 129.291 182.595 128.698 182.119 128.222C181.643 127.746 181.055 127.508 180.355 127.508C179.664 127.508 179.081 127.746 178.605 128.222C178.129 128.698 177.891 129.291 177.891 130C177.891 130.709 178.129 131.302 178.605 131.778C179.081 132.254 179.664 132.492 180.355 132.492ZM187.125 127.676C187.526 126.808 188.254 126.374 189.309 126.374V127.648C188.712 127.62 188.198 127.779 187.769 128.124C187.34 128.469 187.125 129.025 187.125 129.79V133.5H185.907V126.5H187.125V127.676ZM253.43 126.5H254.732L251.876 133.934C251.578 134.727 251.158 135.329 250.616 135.74C250.084 136.16 249.468 136.347 248.768 136.3V135.166C249.627 135.231 250.257 134.755 250.658 133.738L250.784 133.472L247.732 126.5H249.034L251.414 131.988L253.43 126.5ZM261.804 132.618C261.085 133.327 260.213 133.682 259.186 133.682C258.159 133.682 257.287 133.327 256.568 132.618C255.859 131.909 255.504 131.036 255.504 130C255.504 128.964 255.859 128.091 256.568 127.382C257.287 126.673 258.159 126.318 259.186 126.318C260.213 126.318 261.085 126.673 261.804 127.382C262.523 128.091 262.882 128.964 262.882 130C262.882 131.036 262.523 131.909 261.804 132.618ZM259.186 132.492C259.886 132.492 260.474 132.254 260.95 131.778C261.426 131.302 261.664 130.709 261.664 130C261.664 129.291 261.426 128.698 260.95 128.222C260.474 127.746 259.886 127.508 259.186 127.508C258.495 127.508 257.912 127.746 257.436 128.222C256.96 128.698 256.722 129.291 256.722 130C256.722 130.709 256.96 131.302 257.436 131.778C257.912 132.254 258.495 132.492 259.186 132.492ZM269.568 126.5H270.786V133.5H269.568V132.492C269.073 133.285 268.317 133.682 267.3 133.682C266.478 133.682 265.82 133.425 265.326 132.912C264.831 132.389 264.584 131.685 264.584 130.798V126.5H265.802V130.728C265.802 131.297 265.956 131.741 266.264 132.058C266.572 132.366 266.996 132.52 267.538 132.52C268.144 132.52 268.634 132.333 269.008 131.96C269.381 131.577 269.568 130.994 269.568 130.21V126.5ZM274.278 127.676C274.68 126.808 275.408 126.374 276.462 126.374V127.648C275.865 127.62 275.352 127.779 274.922 128.124C274.493 128.469 274.278 129.025 274.278 129.79V133.5H273.06V126.5H274.278V127.676ZM289.554 126.318C290.338 126.318 290.973 126.575 291.458 127.088C291.943 127.592 292.186 128.278 292.186 129.146V133.5H290.968V129.188C290.968 128.647 290.828 128.227 290.548 127.928C290.268 127.629 289.895 127.48 289.428 127.48C288.905 127.48 288.485 127.657 288.168 128.012C287.86 128.357 287.706 128.889 287.706 129.608V133.5H286.488V129.188C286.488 128.647 286.353 128.227 286.082 127.928C285.821 127.629 285.461 127.48 285.004 127.48C284.491 127.48 284.061 127.657 283.716 128.012C283.38 128.367 283.212 128.899 283.212 129.608V133.5H281.994V126.5H283.212V127.438C283.688 126.691 284.383 126.318 285.298 126.318C286.241 126.318 286.927 126.715 287.356 127.508C287.841 126.715 288.574 126.318 289.554 126.318ZM299.125 126.5H300.343V133.5H299.125V132.492C298.63 133.285 297.874 133.682 296.857 133.682C296.035 133.682 295.377 133.425 294.883 132.912C294.388 132.389 294.141 131.685 294.141 130.798V126.5H295.359V130.728C295.359 131.297 295.513 131.741 295.821 132.058C296.129 132.366 296.553 132.52 297.095 132.52C297.701 132.52 298.191 132.333 298.565 131.96C298.938 131.577 299.125 130.994 299.125 130.21V126.5ZM303.653 128.39C303.653 128.661 303.789 128.88 304.059 129.048C304.33 129.207 304.657 129.337 305.039 129.44C305.422 129.533 305.805 129.645 306.187 129.776C306.57 129.897 306.897 130.112 307.167 130.42C307.438 130.719 307.573 131.106 307.573 131.582C307.573 132.217 307.326 132.725 306.831 133.108C306.346 133.491 305.721 133.682 304.955 133.682C304.274 133.682 303.691 133.533 303.205 133.234C302.72 132.935 302.375 132.539 302.169 132.044L303.219 131.442C303.331 131.778 303.541 132.044 303.849 132.24C304.157 132.436 304.526 132.534 304.955 132.534C305.357 132.534 305.688 132.459 305.949 132.31C306.211 132.151 306.341 131.909 306.341 131.582C306.341 131.311 306.206 131.097 305.935 130.938C305.665 130.77 305.338 130.639 304.955 130.546C304.573 130.443 304.19 130.327 303.807 130.196C303.425 130.065 303.098 129.851 302.827 129.552C302.557 129.253 302.421 128.871 302.421 128.404C302.421 127.797 302.655 127.298 303.121 126.906C303.597 126.514 304.19 126.318 304.899 126.318C305.469 126.318 305.973 126.449 306.411 126.71C306.859 126.962 307.195 127.317 307.419 127.774L306.397 128.348C306.145 127.751 305.646 127.452 304.899 127.452C304.554 127.452 304.26 127.536 304.017 127.704C303.775 127.863 303.653 128.091 303.653 128.39ZM309.983 125.226C309.75 125.226 309.554 125.147 309.395 124.988C309.237 124.829 309.157 124.638 309.157 124.414C309.157 124.19 309.237 123.999 309.395 123.84C309.554 123.672 309.75 123.588 309.983 123.588C310.207 123.588 310.399 123.672 310.557 123.84C310.716 123.999 310.795 124.19 310.795 124.414C310.795 124.638 310.716 124.829 310.557 124.988C310.399 125.147 310.207 125.226 309.983 125.226ZM309.367 133.5V126.5H310.585V133.5H309.367ZM316.153 133.682C315.099 133.682 314.221 133.332 313.521 132.632C312.821 131.923 312.471 131.045 312.471 130C312.471 128.955 312.821 128.082 313.521 127.382C314.221 126.673 315.099 126.318 316.153 126.318C316.844 126.318 317.465 126.486 318.015 126.822C318.566 127.149 318.977 127.592 319.247 128.152L318.225 128.74C318.048 128.367 317.773 128.068 317.399 127.844C317.035 127.62 316.62 127.508 316.153 127.508C315.453 127.508 314.865 127.746 314.389 128.222C313.923 128.698 313.689 129.291 313.689 130C313.689 130.7 313.923 131.288 314.389 131.764C314.865 132.24 315.453 132.478 316.153 132.478C316.62 132.478 317.04 132.371 317.413 132.156C317.787 131.932 318.071 131.633 318.267 131.26L319.303 131.862C319.005 132.413 318.575 132.856 318.015 133.192C317.455 133.519 316.835 133.682 316.153 133.682ZM328.15 133.682C327.095 133.682 326.218 133.332 325.518 132.632C324.818 131.923 324.468 131.045 324.468 130C324.468 128.955 324.818 128.082 325.518 127.382C326.218 126.673 327.095 126.318 328.15 126.318C328.84 126.318 329.461 126.486 330.012 126.822C330.562 127.149 330.973 127.592 331.244 128.152L330.222 128.74C330.044 128.367 329.769 128.068 329.396 127.844C329.032 127.62 328.616 127.508 328.15 127.508C327.45 127.508 326.862 127.746 326.386 128.222C325.919 128.698 325.686 129.291 325.686 130C325.686 130.7 325.919 131.288 326.386 131.764C326.862 132.24 327.45 132.478 328.15 132.478C328.616 132.478 329.036 132.371 329.41 132.156C329.783 131.932 330.068 131.633 330.264 131.26L331.3 131.862C331.001 132.413 330.572 132.856 330.012 133.192C329.452 133.519 328.831 133.682 328.15 133.682ZM338.734 132.618C338.016 133.327 337.143 133.682 336.116 133.682C335.09 133.682 334.217 133.327 333.498 132.618C332.789 131.909 332.434 131.036 332.434 130C332.434 128.964 332.789 128.091 333.498 127.382C334.217 126.673 335.09 126.318 336.116 126.318C337.143 126.318 338.016 126.673 338.734 127.382C339.453 128.091 339.812 128.964 339.812 130C339.812 131.036 339.453 131.909 338.734 132.618ZM336.116 132.492C336.816 132.492 337.404 132.254 337.88 131.778C338.356 131.302 338.594 130.709 338.594 130C338.594 129.291 338.356 128.698 337.88 128.222C337.404 127.746 336.816 127.508 336.116 127.508C335.426 127.508 334.842 127.746 334.366 128.222C333.89 128.698 333.652 129.291 333.652 130C333.652 130.709 333.89 131.302 334.366 131.778C334.842 132.254 335.426 132.492 336.116 132.492ZM341.668 133.5V123.28H342.886V133.5H341.668ZM345.165 133.5V123.28H346.383V133.5H345.165ZM349.515 130.56C349.636 131.185 349.921 131.671 350.369 132.016C350.826 132.361 351.386 132.534 352.049 132.534C352.973 132.534 353.645 132.193 354.065 131.512L355.101 132.1C354.419 133.155 353.393 133.682 352.021 133.682C350.91 133.682 350.005 133.337 349.305 132.646C348.614 131.946 348.269 131.064 348.269 130C348.269 128.945 348.609 128.068 349.291 127.368C349.972 126.668 350.854 126.318 351.937 126.318C352.963 126.318 353.799 126.682 354.443 127.41C355.096 128.129 355.423 128.997 355.423 130.014C355.423 130.191 355.409 130.373 355.381 130.56H349.515ZM351.937 127.466C351.283 127.466 350.742 127.653 350.313 128.026C349.883 128.39 349.617 128.88 349.515 129.496H354.191C354.088 128.833 353.827 128.329 353.407 127.984C352.987 127.639 352.497 127.466 351.937 127.466ZM360.519 133.682C359.464 133.682 358.587 133.332 357.887 132.632C357.187 131.923 356.837 131.045 356.837 130C356.837 128.955 357.187 128.082 357.887 127.382C358.587 126.673 359.464 126.318 360.519 126.318C361.21 126.318 361.83 126.486 362.381 126.822C362.932 127.149 363.342 127.592 363.613 128.152L362.591 128.74C362.414 128.367 362.138 128.068 361.765 127.844C361.401 127.62 360.986 127.508 360.519 127.508C359.819 127.508 359.231 127.746 358.755 128.222C358.288 128.698 358.055 129.291 358.055 130C358.055 130.7 358.288 131.288 358.755 131.764C359.231 132.24 359.819 132.478 360.519 132.478C360.986 132.478 361.406 132.371 361.779 132.156C362.152 131.932 362.437 131.633 362.633 131.26L363.669 131.862C363.37 132.413 362.941 132.856 362.381 133.192C361.821 133.519 361.2 133.682 360.519 133.682ZM369.1 127.676H367.238V131.47C367.238 131.815 367.303 132.063 367.434 132.212C367.574 132.352 367.784 132.427 368.064 132.436C368.344 132.436 368.689 132.427 369.1 132.408V133.5C368.036 133.64 367.256 133.556 366.762 133.248C366.267 132.931 366.02 132.338 366.02 131.47V127.676H364.634V126.5H366.02V124.904L367.238 124.54V126.5H369.1V127.676ZM376.402 126.5H377.62V133.5H376.402V132.296C375.796 133.22 374.914 133.682 373.756 133.682C372.776 133.682 371.941 133.327 371.25 132.618C370.56 131.899 370.214 131.027 370.214 130C370.214 128.973 370.56 128.105 371.25 127.396C371.941 126.677 372.776 126.318 373.756 126.318C374.914 126.318 375.796 126.78 376.402 127.704V126.5ZM373.91 132.506C374.62 132.506 375.212 132.268 375.688 131.792C376.164 131.307 376.402 130.709 376.402 130C376.402 129.291 376.164 128.698 375.688 128.222C375.212 127.737 374.62 127.494 373.91 127.494C373.21 127.494 372.622 127.737 372.146 128.222C371.67 128.698 371.432 129.291 371.432 130C371.432 130.709 371.67 131.307 372.146 131.792C372.622 132.268 373.21 132.506 373.91 132.506ZM383.75 126.318C384.73 126.318 385.565 126.677 386.256 127.396C386.946 128.105 387.292 128.973 387.292 130C387.292 131.027 386.946 131.899 386.256 132.618C385.565 133.327 384.73 133.682 383.75 133.682C382.592 133.682 381.71 133.22 381.104 132.296V133.5H379.886V123.7H381.104V127.704C381.71 126.78 382.592 126.318 383.75 126.318ZM383.596 132.506C384.296 132.506 384.884 132.268 385.36 131.792C385.836 131.307 386.074 130.709 386.074 130C386.074 129.291 385.836 128.698 385.36 128.222C384.884 127.737 384.296 127.494 383.596 127.494C382.886 127.494 382.294 127.737 381.818 128.222C381.342 128.698 381.104 129.291 381.104 130C381.104 130.709 381.342 131.307 381.818 131.792C382.294 132.268 382.886 132.506 383.596 132.506ZM389.165 133.5V123.28H390.383V133.5H389.165ZM393.515 130.56C393.637 131.185 393.921 131.671 394.369 132.016C394.827 132.361 395.387 132.534 396.049 132.534C396.973 132.534 397.645 132.193 398.065 131.512L399.101 132.1C398.42 133.155 397.393 133.682 396.021 133.682C394.911 133.682 394.005 133.337 393.305 132.646C392.615 131.946 392.269 131.064 392.269 130C392.269 128.945 392.61 128.068 393.291 127.368C393.973 126.668 394.855 126.318 395.937 126.318C396.964 126.318 397.799 126.682 398.443 127.41C399.097 128.129 399.423 128.997 399.423 130.014C399.423 130.191 399.409 130.373 399.381 130.56H393.515ZM395.937 127.466C395.284 127.466 394.743 127.653 394.313 128.026C393.884 128.39 393.618 128.88 393.515 129.496H398.191C398.089 128.833 397.827 128.329 397.407 127.984C396.987 127.639 396.497 127.466 395.937 127.466ZM408.649 126.318C409.471 126.318 410.129 126.579 410.623 127.102C411.118 127.615 411.365 128.315 411.365 129.202V133.5H410.147V129.272C410.147 128.703 409.993 128.264 409.685 127.956C409.377 127.639 408.953 127.48 408.411 127.48C407.805 127.48 407.315 127.671 406.941 128.054C406.568 128.427 406.381 129.006 406.381 129.79V133.5H405.163V123.7H406.381V127.508C406.876 126.715 407.632 126.318 408.649 126.318ZM414.34 130.56C414.461 131.185 414.746 131.671 415.194 132.016C415.651 132.361 416.211 132.534 416.874 132.534C417.798 132.534 418.47 132.193 418.89 131.512L419.926 132.1C419.244 133.155 418.218 133.682 416.846 133.682C415.735 133.682 414.83 133.337 414.13 132.646C413.439 131.946 413.094 131.064 413.094 130C413.094 128.945 413.434 128.068 414.116 127.368C414.797 126.668 415.679 126.318 416.762 126.318C417.788 126.318 418.624 126.682 419.268 127.41C419.921 128.129 420.248 128.997 420.248 130.014C420.248 130.191 420.234 130.373 420.206 130.56H414.34ZM416.762 127.466C416.108 127.466 415.567 127.653 415.138 128.026C414.708 128.39 414.442 128.88 414.34 129.496H419.016C418.913 128.833 418.652 128.329 418.232 127.984C417.812 127.639 417.322 127.466 416.762 127.466ZM423.286 127.676C423.687 126.808 424.415 126.374 425.47 126.374V127.648C424.872 127.62 424.359 127.779 423.93 128.124C423.5 128.469 423.286 129.025 423.286 129.79V133.5H422.068V126.5H423.286V127.676ZM427.553 130.56C427.674 131.185 427.959 131.671 428.407 132.016C428.864 132.361 429.424 132.534 430.087 132.534C431.011 132.534 431.683 132.193 432.103 131.512L433.139 132.1C432.457 133.155 431.431 133.682 430.059 133.682C428.948 133.682 428.043 133.337 427.343 132.646C426.652 131.946 426.307 131.064 426.307 130C426.307 128.945 426.647 128.068 427.329 127.368C428.01 126.668 428.892 126.318 429.975 126.318C431.001 126.318 431.837 126.682 432.481 127.41C433.134 128.129 433.461 128.997 433.461 130.014C433.461 130.191 433.447 130.373 433.419 130.56H427.553ZM429.975 127.466C429.321 127.466 428.78 127.653 428.351 128.026C427.921 128.39 427.655 128.88 427.553 129.496H432.229C432.126 128.833 431.865 128.329 431.445 127.984C431.025 127.639 430.535 127.466 429.975 127.466Z" fill="#293341"/>
<path d="M201.183 132.758C200.492 133.374 199.601 133.682 198.509 133.682C197.417 133.682 196.525 133.374 195.835 132.758C195.144 132.133 194.799 131.297 194.799 130.252V123.7H196.409V130.154C196.409 130.751 196.581 131.227 196.927 131.582C197.281 131.937 197.809 132.114 198.509 132.114C199.209 132.114 199.731 131.937 200.077 131.582C200.431 131.227 200.609 130.751 200.609 130.154V123.7H202.219V130.252C202.219 131.297 201.873 132.133 201.183 132.758ZM208.354 126.318C209.316 126.318 210.137 126.677 210.818 127.396C211.5 128.105 211.84 128.973 211.84 130C211.84 131.036 211.5 131.909 210.818 132.618C210.137 133.327 209.316 133.682 208.354 133.682C207.29 133.682 206.474 133.29 205.904 132.506V136.3H204.392V126.5H205.904V127.508C206.474 126.715 207.29 126.318 208.354 126.318ZM206.534 131.61C206.954 132.03 207.482 132.24 208.116 132.24C208.751 132.24 209.278 132.03 209.698 131.61C210.118 131.181 210.328 130.644 210.328 130C210.328 129.356 210.118 128.824 209.698 128.404C209.278 127.975 208.751 127.76 208.116 127.76C207.482 127.76 206.954 127.975 206.534 128.404C206.114 128.824 205.904 129.356 205.904 130C205.904 130.644 206.114 131.181 206.534 131.61ZM213.631 133.5V123.28H215.143V133.5H213.631ZM220.622 133.682C219.596 133.682 218.723 133.327 218.004 132.618C217.286 131.909 216.926 131.036 216.926 130C216.926 128.964 217.286 128.091 218.004 127.382C218.723 126.673 219.596 126.318 220.622 126.318C221.658 126.318 222.531 126.673 223.24 127.382C223.959 128.091 224.318 128.964 224.318 130C224.318 131.036 223.959 131.909 223.24 132.618C222.531 133.327 221.658 133.682 220.622 133.682ZM219.068 131.582C219.488 132.002 220.006 132.212 220.622 132.212C221.238 132.212 221.756 132.002 222.176 131.582C222.596 131.162 222.806 130.635 222.806 130C222.806 129.365 222.596 128.838 222.176 128.418C221.756 127.998 221.238 127.788 220.622 127.788C220.006 127.788 219.488 127.998 219.068 128.418C218.648 128.838 218.438 129.365 218.438 130C218.438 130.635 218.648 131.162 219.068 131.582ZM231.65 126.5H233.162V133.5H231.65V132.492C231.08 133.285 230.264 133.682 229.2 133.682C228.238 133.682 227.417 133.327 226.736 132.618C226.054 131.899 225.714 131.027 225.714 130C225.714 128.964 226.054 128.091 226.736 127.382C227.417 126.673 228.238 126.318 229.2 126.318C230.264 126.318 231.08 126.71 231.65 127.494V126.5ZM227.856 131.61C228.276 132.03 228.803 132.24 229.438 132.24C230.072 132.24 230.6 132.03 231.02 131.61C231.44 131.181 231.65 130.644 231.65 130C231.65 129.356 231.44 128.824 231.02 128.404C230.6 127.975 230.072 127.76 229.438 127.76C228.803 127.76 228.276 127.975 227.856 128.404C227.436 128.824 227.226 129.356 227.226 130C227.226 130.644 227.436 131.181 227.856 131.61ZM240.888 123.7H242.4V133.5H240.888V132.492C240.319 133.285 239.502 133.682 238.438 133.682C237.477 133.682 236.655 133.327 235.974 132.618C235.293 131.899 234.952 131.027 234.952 130C234.952 128.964 235.293 128.091 235.974 127.382C236.655 126.673 237.477 126.318 238.438 126.318C239.502 126.318 240.319 126.71 240.888 127.494V123.7ZM237.094 131.61C237.514 132.03 238.041 132.24 238.676 132.24C239.311 132.24 239.838 132.03 240.258 131.61C240.678 131.181 240.888 130.644 240.888 130C240.888 129.356 240.678 128.824 240.258 128.404C239.838 127.975 239.311 127.76 238.676 127.76C238.041 127.76 237.514 127.975 237.094 128.404C236.674 128.824 236.464 129.356 236.464 130C236.464 130.644 236.674 131.181 237.094 131.61Z" fill="#1A79E8"/>
</svg>
