<svg width="69" height="20" viewBox="0 0 69 20" fill="none" xmlns="http://www.w3.org/2000/svg">
<path d="M4.304 7.172C5.424 7.172 6.34667 7.524 7.072 8.228C7.79733 8.92133 8.16 9.82267 8.16 10.932C8.16 12.0413 7.79733 12.948 7.072 13.652C6.34667 14.356 5.424 14.708 4.304 14.708C3.17333 14.708 2.24533 14.356 1.52 13.652C0.805333 12.948 0.448 12.0413 0.448 10.932C0.448 10.068 0.672 9.32133 1.12 8.692L4.72 3.3H6.416L3.776 7.204C4.01067 7.18267 4.18667 7.172 4.304 7.172ZM2.576 12.644C3.024 13.0707 3.6 13.284 4.304 13.284C5.008 13.284 5.57867 13.0707 6.016 12.644C6.464 12.2067 6.688 11.636 6.688 10.932C6.688 10.228 6.464 9.66267 6.016 9.236C5.57867 8.80933 5.008 8.596 4.304 8.596C3.58933 8.596 3.01333 8.80933 2.576 9.236C2.13867 9.66267 1.92 10.228 1.92 10.932C1.92 11.636 2.13867 12.2067 2.576 12.644ZM10.7129 14.676C10.4249 14.676 10.1795 14.5747 9.97687 14.372C9.77421 14.1693 9.67287 13.924 9.67287 13.636C9.67287 13.348 9.77421 13.1027 9.97687 12.9C10.1795 12.6973 10.4249 12.596 10.7129 12.596C11.0115 12.596 11.2569 12.6973 11.4489 12.9C11.6515 13.1027 11.7529 13.348 11.7529 13.636C11.7529 13.924 11.6515 14.1693 11.4489 14.372C11.2569 14.5747 11.0115 14.676 10.7129 14.676ZM17.4675 7.668C18.5235 7.668 19.4142 7.98267 20.1395 8.612C20.8755 9.23067 21.2435 10.0893 21.2435 11.188C21.2435 12.276 20.8702 13.1347 20.1235 13.764C19.3768 14.3933 18.4702 14.708 17.4035 14.708C16.5502 14.708 15.7875 14.5053 15.1155 14.1C14.4435 13.684 13.9742 13.0867 13.7075 12.308L14.9715 11.588C15.1208 12.132 15.4088 12.548 15.8355 12.836C16.2622 13.1133 16.7848 13.252 17.4035 13.252C18.1075 13.252 18.6782 13.0707 19.1155 12.708C19.5528 12.3453 19.7715 11.8387 19.7715 11.188C19.7715 10.5373 19.5528 10.0307 19.1155 9.668C18.6782 9.29467 18.1182 9.108 17.4355 9.108H14.2675L14.6835 3.3H20.8115V4.692H16.0275L15.8355 7.668H17.4675ZM29.5063 6.852C29.5063 7.716 29.2769 8.468 28.8183 9.108H28.8343L25.2183 14.5H23.5383L26.1943 10.58C25.9596 10.6013 25.7783 10.612 25.6503 10.612C24.5196 10.612 23.5916 10.2653 22.8663 9.572C22.1516 8.868 21.7943 7.96133 21.7943 6.852C21.7943 5.74267 22.1516 4.84133 22.8663 4.148C23.5916 3.444 24.5196 3.092 25.6503 3.092C26.7809 3.092 27.7036 3.444 28.4183 4.148C29.1436 4.84133 29.5063 5.74267 29.5063 6.852ZM23.9223 5.156C23.4849 5.58267 23.2663 6.148 23.2663 6.852C23.2663 7.556 23.4849 8.12667 23.9223 8.564C24.3703 8.99067 24.9463 9.204 25.6503 9.204C26.3543 9.204 26.9249 8.99067 27.3623 8.564C27.8103 8.12667 28.0343 7.556 28.0343 6.852C28.0343 6.148 27.8156 5.58267 27.3783 5.156C26.9409 4.72933 26.3649 4.516 25.6503 4.516C24.9463 4.516 24.3703 4.72933 23.9223 5.156Z" fill="#293341"/>
<path d="M42.688 13.092H47.888V14.5H41.2V3.3H47.808V4.708H42.688V8.148H47.408V9.54H42.688V13.092ZM57.3324 3.3V4.708H54.0204V14.5H52.5484V4.708H49.2524V3.3H57.3324ZM66.213 3.3H67.685V14.5H66.213V9.46H60.773V14.5H59.285V3.3H60.773V8.052H66.213V3.3Z" fill="#293341"/>
</svg>
